<svg width="31" height="31" viewBox="0 0 31 31" fill="none" xmlns="http://www.w3.org/2000/svg">
<circle cx="15.5" cy="15.5" r="15" fill="#2C578C"/>
<path fill-rule="evenodd" clip-rule="evenodd" d="M10.6083 8.56C9.77569 7.2279 10.7334 5.5 12.3042 5.5H18.6958C20.2666 5.5 21.2243 7.2279 20.3917 8.56L19.2018 10.4639C20.6075 11.2204 21.8012 12.3568 22.6922 13.6419C23.8076 15.2508 24.5 17.1676 24.5 19C24.5 21.3056 23.4022 22.9911 21.6813 24.0512C20.016 25.077 17.8083 25.5 15.5 25.5C13.1917 25.5 10.984 25.077 9.31869 24.0512C7.59777 22.9911 6.5 21.3056 6.5 19C6.5 17.1676 7.19238 15.2508 8.30784 13.6419C9.19877 12.3568 10.3925 11.2204 11.7982 10.4639L10.6083 8.56ZM18.6958 7.5H12.3042L14.1004 10.3739C14.2604 10.6298 14.2962 10.9442 14.1979 11.2295C14.0997 11.5148 13.8778 11.7405 13.5942 11.8436C12.1612 12.3648 10.8791 13.4434 9.95148 14.7814C9.02176 16.1224 8.5 17.6492 8.5 19C8.5 20.5604 9.19309 21.6248 10.3676 22.3483C11.5977 23.106 13.39 23.5 15.5 23.5C17.6099 23.5 19.4023 23.106 20.6324 22.3483C21.8069 21.6248 22.5 20.5604 22.5 19C22.5 17.6492 21.9782 16.1224 21.0485 14.7814C20.1209 13.4434 18.8388 12.3648 17.4058 11.8436C17.1222 11.7405 16.9003 11.5148 16.8021 11.2295C16.7038 10.9442 16.7396 10.6298 16.8996 10.3739L18.6958 7.5Z" fill="#F2FEF4"/>
<path d="M15.3144 21.596C14.764 21.596 14.2776 21.4872 13.8552 21.2696C13.4392 21.052 13.0808 20.7256 12.78 20.2904L13.4904 19.4744C13.804 19.9224 14.1048 20.2328 14.3928 20.4056C14.6808 20.5784 15.0232 20.6648 15.42 20.6648C15.6632 20.6648 15.884 20.6264 16.0824 20.5496C16.2808 20.4728 16.4376 20.3672 16.5528 20.2328C16.668 20.0984 16.7256 19.9448 16.7256 19.772C16.7256 19.6568 16.7064 19.548 16.668 19.4456C16.6296 19.3432 16.5688 19.2504 16.4856 19.1672C16.4088 19.084 16.3064 19.0072 16.1784 18.9368C16.0568 18.8664 15.9128 18.8056 15.7464 18.7544C15.58 18.6968 15.388 18.6488 15.1704 18.6104C14.7096 18.5208 14.3256 18.3864 14.0184 18.2072C13.7176 18.028 13.4904 17.8008 13.3368 17.5256C13.1896 17.2504 13.116 16.9304 13.116 16.5656C13.116 16.2968 13.1736 16.0472 13.2888 15.8168C13.4104 15.5864 13.5736 15.388 13.7784 15.2216C13.9896 15.0488 14.236 14.9176 14.5176 14.828C14.7992 14.732 15.1032 14.684 15.4296 14.684C15.948 14.684 16.3992 14.7864 16.7832 14.9912C17.1736 15.1896 17.4808 15.4808 17.7048 15.8648L16.9752 16.5848C16.7832 16.2712 16.5528 16.0312 16.284 15.8648C16.0216 15.6984 15.7272 15.6152 15.4008 15.6152C15.1512 15.6152 14.9336 15.6536 14.748 15.7304C14.5624 15.8072 14.4152 15.916 14.3064 16.0568C14.204 16.1912 14.1528 16.3512 14.1528 16.5368C14.1528 16.6712 14.1784 16.796 14.2296 16.9112C14.2808 17.02 14.3576 17.1192 14.46 17.2088C14.5688 17.292 14.7128 17.3688 14.892 17.4392C15.0712 17.5032 15.2856 17.5608 15.5352 17.612C15.8872 17.6888 16.2008 17.788 16.476 17.9096C16.7512 18.0248 16.9848 18.1624 17.1768 18.3224C17.3688 18.4824 17.5128 18.6616 17.6088 18.86C17.7112 19.0584 17.7624 19.2728 17.7624 19.5032C17.7624 19.932 17.6632 20.3032 17.4648 20.6168C17.2664 20.9304 16.9848 21.1736 16.62 21.3464C16.2552 21.5128 15.82 21.596 15.3144 21.596ZM14.7384 22.3736V18.0152L15.6696 18.332V22.3736H14.7384ZM16.0536 18.332L15.1224 18.0152V13.9928H16.0536V18.332Z" fill="#F2FEF4"/>
</svg>
