<svg width="36" height="36" viewBox="0 0 36 36" fill="none" xmlns="http://www.w3.org/2000/svg">
<circle cx="18" cy="18" r="18" fill="#2C578C"/>
<path d="M30.5343 20.7847C30.387 20.6149 30.1731 20.5172 29.9482 20.5172H28.3965V18.9655C28.3965 18.1101 27.7004 17.4138 26.8448 17.4138H23.7413C22.8857 17.4138 22.1896 18.1101 22.1896 18.9655V20.5172H20.6379C20.413 20.5172 20.1992 20.615 20.0518 20.7847C19.9044 20.9547 19.838 21.1802 19.8698 21.403L20.6456 26.834C20.7002 27.2159 21.0277 27.5 21.4137 27.5H29.1724C29.5584 27.5 29.8859 27.2159 29.9405 26.834L30.7163 21.403C30.7481 21.1802 30.6816 20.9548 30.5343 20.7847ZM23.7413 18.9655H26.8448V20.5172H23.7413V18.9655ZM28.4995 25.9483H22.0866L21.5325 22.069H29.0536L28.4995 25.9483Z" fill="white"/>
<path d="M15.2068 19.7414H16.7585V27.5H15.2068V19.7414Z" fill="white"/>
<path d="M20.4678 18.0927L18.9881 16.2432L17.8693 13.4458C17.5136 12.5571 16.6654 11.9828 15.7081 11.9828H11.3276C10.0441 11.9828 9 13.0268 9 14.3103V19.7414C9 20.5968 9.69595 21.2931 10.5517 21.2931H11.3276V27.5H12.8793V19.7414H10.5517V14.3103C10.5517 13.8822 10.8999 13.5345 11.3276 13.5345H15.7081C16.0271 13.5345 16.3101 13.7262 16.4283 14.0224L17.7046 17.1228L19.2563 19.0625L20.4678 18.0927Z" fill="white"/>
<path d="M10.5516 8.10345C10.5516 6.39221 11.9438 5 13.6551 5C15.3663 5 16.7585 6.39221 16.7585 8.10345C16.7585 9.81469 15.3663 11.2069 13.6551 11.2069C11.9438 11.2069 10.5516 9.81469 10.5516 8.10345ZM12.1034 8.10345C12.1034 8.95907 12.7993 9.65517 13.6551 9.65517C14.5109 9.65517 15.2068 8.95907 15.2068 8.10345C15.2068 7.24783 14.5109 6.55172 13.6551 6.55172C12.7993 6.55172 12.1034 7.24783 12.1034 8.10345Z" fill="white"/>
</svg>
