<svg width="31" height="31" viewBox="0 0 31 31" fill="none" xmlns="http://www.w3.org/2000/svg">
<circle cx="15.5" cy="15.5" r="15" fill="#2C578C"/>
<path fill-rule="evenodd" clip-rule="evenodd" d="M9.83333 7.16667V10.5H19.8333V7.16667C19.8333 6.79848 19.5348 6.5 19.1667 6.5H10.5C10.1318 6.5 9.83333 6.79848 9.83333 7.16667ZM10.6836 19.1667V23.8333C10.6836 24.0101 10.7461 24.1797 10.8572 24.3048C10.9684 24.4297 11.1192 24.5 11.2764 24.5H18.3902C18.5474 24.5 18.6982 24.4297 18.8094 24.3048C18.9205 24.1797 18.9831 24.0101 18.9831 23.8333V19.1667H10.6836ZM6.10071 12.9053C6.47852 12.5503 6.98252 12.3576 7.5 12.3576H22.1667C22.6841 12.3576 23.1881 12.5503 23.566 12.9053C23.9452 13.2616 24.1667 13.754 24.1667 14.2769V19.914C24.1667 20.4369 23.9452 20.9293 23.566 21.2857C23.1881 21.6407 22.6841 21.8333 22.1667 21.8333H20.6497V19.1667C20.6497 18.2462 19.9035 17.5 18.9831 17.5H10.6836C9.76312 17.5 9.01693 18.2462 9.01693 19.1667V21.8333H7.5C6.98252 21.8333 6.47852 21.6407 6.10071 21.2857C5.72149 20.9293 5.5 20.4369 5.5 19.914V14.2769C5.5 13.754 5.72149 13.2616 6.10071 12.9053ZM17.9197 14.8304C17.9197 14.3702 18.2928 13.9971 18.753 13.9971H20.9357C21.396 13.9971 21.7691 14.3702 21.7691 14.8304C21.7691 15.2907 21.396 15.6638 20.9357 15.6638H18.753C18.2928 15.6638 17.9197 15.2907 17.9197 14.8304Z" fill="#F2FEF4"/>
</svg>
