<svg width="31" height="31" viewBox="0 0 31 31" fill="none" xmlns="http://www.w3.org/2000/svg">
<circle cx="15.5" cy="15.5" r="15" fill="#2C578C"/>
<path d="M21.9372 17.5107H23.7832C24.1913 17.5107 24.5828 17.3492 24.8721 17.0615C25.1615 16.7738 25.3252 16.3833 25.3276 15.9753C25.3297 15.6787 25.2473 15.3877 25.0902 15.1362C24.933 14.8848 24.7075 14.6832 24.44 14.5552L16.0084 10.7388L7.59449 14.5552C7.32702 14.6832 7.10151 14.8848 6.94435 15.1362C6.78718 15.3877 6.70484 15.6787 6.70695 15.9753C6.70929 16.3833 6.87303 16.7738 7.1624 17.0615C7.45176 17.3492 7.84322 17.5107 8.25127 17.5107H10.0796" stroke="#F2FEF4" stroke-width="1.16369" stroke-miterlimit="10"/>
<path d="M16.0084 10.7388V10.5346C16.0244 10.1808 16.1235 9.83564 16.2977 9.52724C16.472 9.21883 16.7164 8.95583 17.0113 8.75955C17.2516 8.59253 17.4445 8.36617 17.5714 8.10248C17.6982 7.83879 17.7546 7.54676 17.7352 7.2548C17.7157 6.96284 17.621 6.68089 17.4602 6.43639C17.2995 6.19188 17.0782 5.99315 16.8179 5.85952C16.5576 5.72589 16.2671 5.66192 15.9747 5.67383C15.6824 5.68574 15.398 5.77312 15.1495 5.92748C14.9009 6.08184 14.6965 6.29791 14.5562 6.55468C14.4158 6.81144 14.3444 7.10016 14.3487 7.39274" stroke="#F2FEF4" stroke-width="1.16369" stroke-miterlimit="10"/>
<path d="M11.7745 15.8599H20.2506C20.7002 15.8599 21.1313 16.0385 21.4493 16.3564C21.7672 16.6743 21.9458 17.1055 21.9458 17.5551V24.2916H10.0793V17.5108C10.0909 17.0689 10.2746 16.649 10.5913 16.3406C10.9079 16.0323 11.3325 15.8598 11.7745 15.8599Z" stroke="#F2FEF4" stroke-width="1.16369" stroke-miterlimit="10"/>
</svg>
