<svg width="180" height="157" viewBox="0 0 180 157" fill="none" xmlns="http://www.w3.org/2000/svg">
<path d="M159.975 55.5066C161.235 28.7225 171.075 0.0734214 180 0V37.6652V150H0V0C3 7.85609 22.5 23.348 14.175 52.4229C5.85 81.4978 33.0965 79.2268 29.0465 103.456C24.9965 127.685 51.5172 132.124 76.7971 125.074C93.5991 120.387 97.65 101.101 119.025 93.6123C140.4 86.1234 158.4 88.9868 159.975 55.5066Z" fill="#2A5889"/>
<path d="M159.975 76.9956C161.235 54.3184 171.075 30.0622 180 30V61.8899V157H0V30C3 36.6515 22.5 49.768 14.175 74.3847C5.85 99.0015 33.0965 97.0787 29.0465 117.593C24.9965 138.107 51.5172 141.865 76.7971 135.896C93.5991 131.928 97.65 115.599 119.025 109.258C140.4 102.918 158.4 105.342 159.975 76.9956Z" fill="#6E86AA"/>
</svg>
