<svg width="24" height="24" viewBox="0 0 24 24" fill="none" xmlns="http://www.w3.org/2000/svg">
<path d="M22 18.2502V11.3153C22 10.6474 21.9994 10.3132 21.9182 10.0024C21.8462 9.72698 21.7281 9.46634 21.5682 9.2308C21.3878 8.96502 21.1369 8.74461 20.6343 8.30478L14.6343 3.05478C13.701 2.23818 13.2344 1.83008 12.7092 1.67478C12.2465 1.53793 11.7533 1.53793 11.2905 1.67478C10.7658 1.82996 10.2998 2.23767 9.36795 3.05305L3.36597 8.30478C2.8633 8.74462 2.61255 8.96502 2.43213 9.2308C2.27224 9.46634 2.15319 9.72698 2.08121 10.0024C2 10.3132 2 10.6474 2 11.3153V18.2502C2 19.4151 2 19.9973 2.1903 20.4567C2.44404 21.0693 2.9304 21.5565 3.54297 21.8103C4.0024 22.0006 4.58482 22.0006 5.74968 22.0006C6.91453 22.0006 7.4976 22.0006 7.95703 21.8103C8.5696 21.5565 9.05584 21.0694 9.30957 20.4568C9.49987 19.9974 9.5 19.4149 9.5 18.2501V17.0001C9.5 15.6194 10.6193 14.5001 12 14.5001C13.3807 14.5001 14.5 15.6194 14.5 17.0001V18.2501C14.5 19.4149 14.5 19.9974 14.6903 20.4568C14.944 21.0694 15.4304 21.5565 16.043 21.8103C16.5024 22.0006 17.0848 22.0006 18.2497 22.0006C19.4145 22.0006 19.9976 22.0006 20.457 21.8103C21.0696 21.5565 21.5558 21.0693 21.8096 20.4567C21.9999 19.9973 22 19.4151 22 18.2502Z" stroke="#2A5889" stroke-width="2.5" stroke-linecap="round" stroke-linejoin="round"/>
</svg>
