<svg width="26" height="24" viewBox="0 0 26 24" fill="none" xmlns="http://www.w3.org/2000/svg">
<path d="M9.25 10.75V22M9.25 10.75H3.74951C3.04945 10.75 2.69976 10.75 2.43237 10.8862C2.19717 11.0061 2.00608 11.1972 1.88624 11.4324C1.75 11.6998 1.75 12.0501 1.75 12.7501V22H9.25M9.25 10.75V4.00012C9.25 3.30006 9.25 2.94976 9.38624 2.68237C9.50608 2.44717 9.69717 2.25608 9.93237 2.13624C10.1998 2 10.5494 2 11.2495 2H14.7495C15.4496 2 15.8003 2 16.0677 2.13624C16.3029 2.25608 16.4934 2.44717 16.6133 2.68237C16.7495 2.94976 16.75 3.30006 16.75 4.00012V7M9.25 22H16.75M16.75 22L24.25 22.0001V9.00012C24.25 8.30006 24.2495 7.94976 24.1133 7.68237C23.9934 7.44717 23.8037 7.25608 23.5685 7.13624C23.3011 7 22.9501 7 22.25 7H16.75M16.75 22V7" stroke="#2A588A" stroke-width="2.5" stroke-linecap="round" stroke-linejoin="round"/>
</svg>
