<svg width="28" height="28" viewBox="0 0 28 28" fill="none" xmlns="http://www.w3.org/2000/svg">
<path d="M24.4374 10.1537L23.9797 9.899C23.9086 9.85946 23.8736 9.83961 23.8393 9.81904C23.4979 9.61457 23.2102 9.33204 23.0002 8.99404C22.9791 8.96003 22.9592 8.92436 22.9185 8.85387C22.8778 8.78347 22.8572 8.74779 22.8383 8.71248C22.65 8.36083 22.5481 7.96894 22.542 7.57008C22.5414 7.52998 22.5415 7.48901 22.5429 7.40756L22.5518 6.87598C22.5662 6.02532 22.5733 5.59867 22.4538 5.21577C22.3476 4.87567 22.17 4.56241 21.9327 4.29656C21.6646 3.99606 21.2934 3.78168 20.5503 3.35345L19.933 2.99776C19.192 2.57072 18.8213 2.35714 18.4279 2.27571C18.0798 2.20367 17.7207 2.20701 17.3739 2.28486C16.9824 2.37273 16.6164 2.59189 15.8848 3.02995L15.8807 3.03194L15.4384 3.29676C15.3685 3.33864 15.3331 3.35974 15.298 3.37923C14.9502 3.57263 14.5618 3.67957 14.1641 3.69234C14.124 3.69362 14.0832 3.69362 14.0016 3.69362C13.9206 3.69362 13.8781 3.69362 13.8381 3.69234C13.4394 3.67951 13.0503 3.57199 12.7019 3.37779C12.6668 3.35822 12.632 3.33695 12.562 3.29488L12.1169 3.02766C11.3803 2.58545 11.0114 2.36402 10.6178 2.27571C10.2696 2.19758 9.90921 2.19542 9.55988 2.26839C9.16545 2.35077 8.79471 2.56594 8.05323 2.99629L8.04993 2.99776L7.44035 3.35155L7.43361 3.35568C6.6988 3.78215 6.33051 3.9959 6.06462 4.29517C5.82867 4.56075 5.65231 4.87352 5.54675 5.21272C5.42743 5.59614 5.43379 6.0237 5.44817 6.87837L5.4571 7.4092C5.45845 7.48958 5.46079 7.52952 5.46021 7.56906C5.45429 7.96874 5.35107 8.36142 5.16218 8.7137C5.1435 8.74854 5.12337 8.78338 5.08318 8.85297C5.04295 8.92261 5.02347 8.95724 5.00261 8.99084C4.7917 9.33066 4.50267 9.61483 4.15916 9.81966C4.12519 9.83992 4.08938 9.8594 4.01902 9.89839L3.56706 10.1488C2.8151 10.5656 2.43921 10.7741 2.1657 11.0709C1.92373 11.3334 1.74094 11.6448 1.62936 11.984C1.50324 12.3673 1.50334 12.7972 1.50529 13.6569L1.50689 14.3596C1.50883 15.2136 1.51149 15.6402 1.6379 16.021C1.74973 16.3579 1.93119 16.6675 2.1718 16.9284C2.44377 17.2234 2.81592 17.4306 3.56218 17.8458L4.01011 18.095C4.08634 18.1374 4.1247 18.1583 4.16146 18.1804C4.50185 18.3854 4.78861 18.6688 4.99773 19.0067C5.02032 19.0432 5.042 19.0811 5.08537 19.1568C5.1282 19.2316 5.15011 19.2691 5.16992 19.3066C5.35326 19.6537 5.45142 20.0393 5.45812 20.4318C5.45884 20.4742 5.45822 20.5171 5.45677 20.6033L5.44817 21.1127C5.43369 21.9704 5.42738 22.3996 5.5474 22.7841C5.65358 23.1242 5.83105 23.4375 6.06828 23.7033C6.33644 24.0038 6.70819 24.2181 7.45134 24.6463L8.06847 25.0019C8.80954 25.429 9.17993 25.6423 9.57336 25.7237C9.92142 25.7958 10.2808 25.793 10.6276 25.7151C11.0196 25.6271 11.3869 25.4072 12.1205 24.9679L12.5628 24.7031C12.6328 24.6612 12.6682 24.6402 12.7033 24.6207C13.0511 24.4273 13.439 24.3198 13.8368 24.307C13.8769 24.3057 13.9177 24.3057 13.9993 24.3057C14.081 24.3057 14.1217 24.3057 14.1619 24.307C14.5606 24.3199 14.9509 24.4277 15.2992 24.6219C15.3299 24.639 15.3606 24.6574 15.4145 24.6898L15.8847 24.9721C16.6214 25.4144 16.9895 25.6352 17.3831 25.7235C17.7313 25.8016 18.092 25.8048 18.4413 25.7318C18.8357 25.6495 19.2071 25.4339 19.9482 25.0038L20.567 24.6446C21.3022 24.2179 21.6709 24.0039 21.9369 23.7045C22.1728 23.439 22.3494 23.1263 22.455 22.7871C22.5735 22.4065 22.5663 21.9822 22.5521 21.1399L22.5429 20.5905C22.5415 20.5101 22.5414 20.4702 22.542 20.4306C22.5479 20.0309 22.6494 19.638 22.8383 19.2857C22.857 19.2509 22.8772 19.2158 22.9173 19.1464C22.9575 19.0768 22.9783 19.0421 22.9992 19.0085C23.2101 18.6687 23.4994 18.3843 23.8429 18.1794C23.8765 18.1594 23.9111 18.1403 23.9797 18.1022L23.9821 18.1011L24.4341 17.8507C25.186 17.434 25.5626 17.2252 25.8361 16.9284C26.0781 16.6659 26.2607 16.3549 26.3722 16.0158C26.4976 15.6346 26.4967 15.2072 26.4947 14.3576L26.4931 13.6398C26.4911 12.7859 26.4901 12.3592 26.3637 11.9785C26.2519 11.6416 26.0694 11.332 25.8288 11.0711C25.5571 10.7764 25.1844 10.5691 24.4396 10.1547L24.4374 10.1537Z" stroke="#2A588A" stroke-width="2.5" stroke-linecap="round" stroke-linejoin="round"/>
<path d="M9.00041 14C9.00041 16.7614 11.239 19 14.0004 19C16.7618 19 19.0004 16.7614 19.0004 14C19.0004 11.2385 16.7618 8.99995 14.0004 8.99995C11.239 8.99995 9.00041 11.2385 9.00041 14Z" stroke="#2A588A" stroke-width="2.5" stroke-linecap="round" stroke-linejoin="round"/>
</svg>
