<svg width="26" height="26" viewBox="0 0 26 26" fill="none" xmlns="http://www.w3.org/2000/svg">
<path d="M1.75 1.75H2.08543C2.67766 1.75 2.97429 1.75 3.21584 1.85685C3.4288 1.95105 3.61089 2.10272 3.74219 2.29504C3.89087 2.51282 3.94455 2.80362 4.05172 3.38409L6.75005 18.0001L19.7773 18C20.3438 18 20.6279 18 20.8625 17.8999C21.0698 17.8115 21.2486 17.6683 21.3813 17.4862C21.5315 17.2803 21.5951 17.0046 21.7222 16.4539L21.7231 16.45L23.6847 7.94995L23.6851 7.94817C23.8779 7.11269 23.9745 6.69394 23.8684 6.36548C23.7753 6.07728 23.5794 5.83293 23.3195 5.6774C23.0231 5.5 22.5947 5.5 21.7359 5.5H4.875M20.5 24.25C19.8096 24.25 19.25 23.6904 19.25 23C19.25 22.3096 19.8096 21.75 20.5 21.75C21.1904 21.75 21.75 22.3096 21.75 23C21.75 23.6904 21.1904 24.25 20.5 24.25ZM8 24.25C7.30964 24.25 6.75 23.6904 6.75 23C6.75 22.3096 7.30964 21.75 8 21.75C8.69036 21.75 9.25 22.3096 9.25 23C9.25 23.6904 8.69036 24.25 8 24.25Z" stroke="#2A588A" stroke-width="2.5" stroke-linecap="round" stroke-linejoin="round"/>
</svg>
