<svg width="643" height="988" viewBox="0 0 643 988" fill="none" xmlns="http://www.w3.org/2000/svg">
<path d="M403.705 938.469C392.971 940.867 394.027 928.082 391.143 920.564C381.161 886.522 365.469 880.482 383.829 837.929C392.369 823.69 401.137 825.67 411.719 809.831C421.538 795.119 419.006 785.879 424.593 769.992C457.449 688.6 551.369 703.546 640.388 685.513C641.483 685.355 642.122 686.694 641.324 687.459C631.285 697.108 623.281 705.335 617.687 711.224C592.601 737.646 589.805 744.603 575.442 752.321C563.834 758.557 558.824 757.69 553.505 764.654C545.93 774.594 550.169 784.167 548.644 800.105C546.422 823.253 533.584 843.751 521.184 855.46C504.325 871.4 493.95 865.739 479.617 882.879C466.844 898.152 474.366 905.576 462.452 916.492C456.631 921.829 452.059 922.764 413.473 935.269C409.847 936.446 406.553 937.516 403.689 938.45L403.705 938.469Z" fill="#B1E0DE"/>
<mask id="mask0_32_278" style="mask-type:luminance" maskUnits="userSpaceOnUse" x="375" y="685" width="267" height="254">
<path d="M403.705 938.469C392.971 940.867 394.027 928.082 391.143 920.564C381.161 886.522 365.469 880.482 383.829 837.929C392.369 823.69 401.137 825.67 411.719 809.831C421.538 795.119 419.006 785.879 424.593 769.992C457.449 688.6 551.369 703.546 640.388 685.513C641.483 685.355 642.122 686.694 641.324 687.459C631.285 697.108 623.281 705.335 617.687 711.224C592.601 737.646 589.805 744.603 575.442 752.321C563.834 758.557 558.824 757.69 553.505 764.654C545.93 774.594 550.169 784.167 548.644 800.105C546.422 823.253 533.584 843.751 521.184 855.46C504.325 871.4 493.95 865.739 479.617 882.879C466.844 898.152 474.366 905.576 462.452 916.492C456.631 921.829 452.059 922.764 413.473 935.269C409.847 936.446 406.553 937.516 403.689 938.45L403.705 938.469Z" fill="white"/>
</mask>
<g mask="url(#mask0_32_278)">
<path d="M596.119 712.802C533.052 733.172 479.124 777.535 446.941 835.443C423.158 880.95 406.168 929.91 380.843 974.761C404.304 929.032 420.872 879.638 444.478 834.043C476.663 775.634 531.806 730.866 596.119 712.802Z" fill="#6DA7A3"/>
<path d="M553.152 701.774C549.98 713.238 546.062 725.656 542.369 737.002L541.406 735.75C559.203 734.497 577.008 733.475 594.851 733.222C576.655 735.341 558.39 736.653 540.102 737.741C544.151 725.988 548.6 713.309 553.147 701.784L553.152 701.774Z" fill="#6DA7A3"/>
<path d="M520.866 706.427C515.893 725.53 510.477 744.524 504.886 763.455L503.929 762.217C527.46 761.429 553.062 760.713 576.518 760.788C552.671 762.442 526.613 763.414 502.644 764.192C508.449 744.852 514.423 725.562 520.866 706.427Z" fill="#6DA7A3"/>
<path d="M495.44 714.049C491.768 736.987 487.119 761.962 482.8 784.822L481.546 783.719C506.62 775.669 533.874 773.674 559.605 779.666C533.231 775.187 505.931 777.676 480.575 786.045C485.164 762.644 490.199 737.275 495.43 714.045L495.44 714.049Z" fill="#6DA7A3"/>
<path d="M470.643 724.272C467.338 750.307 466.19 776.629 467.685 802.831L466.565 801.94C497.369 796.491 528.813 794.387 560.049 796.158C528.486 796.025 496.921 798.518 465.83 803.998C464.404 777.361 465.848 750.521 470.643 724.272Z" fill="#6DA7A3"/>
<path d="M441.604 744.792C447.012 768.077 452.441 793.964 457.25 817.42L456.09 816.679C484.858 809.751 514.661 806.806 544.205 808.513C514.383 808.441 484.563 811.785 455.561 818.755C450.82 794.922 445.716 768.699 441.604 744.792Z" fill="#6DA7A3"/>
<path d="M430.136 788.249C435.695 803.05 441.426 819.383 446.598 834.387L445.519 833.789C474.118 826.644 504.065 824.442 533.328 828.26C503.76 826.388 473.939 828.824 445.122 835.754C440.092 820.394 434.724 803.693 430.126 788.245L430.136 788.249Z" fill="#6DA7A3"/>
<path d="M416.373 811.99C418.697 827.229 425.915 841.698 436.851 852.546L436.109 852.272C462.231 849.859 489.521 847.558 515.663 846.228C489.559 849.485 462.106 851.967 435.835 854.148C424.696 842.914 417.597 827.756 416.378 811.98L416.373 811.99Z" fill="#6DA7A3"/>
<path d="M401.613 839.358C409.282 852.84 417.266 867.831 424.481 881.618L423.25 881.18C443.952 871.919 467.227 867.999 489.755 871.1C466.987 869.794 444.015 874.036 423.184 883.29C415.992 869.119 408.28 853.72 401.602 839.354L401.613 839.358Z" fill="#6DA7A3"/>
<path d="M391.169 854.051C400.316 868.423 409.007 883.075 417.57 897.804L416.514 897.347C434.871 893.423 454.155 889.507 472.645 886.406C454.256 891.151 434.821 895.468 416.225 899.395C407.624 884.423 399.155 869.365 391.169 854.051Z" fill="#6DA7A3"/>
<path d="M387.177 872.707C394.743 886.621 402.467 902.157 409.435 916.433L408.34 915.9C424.744 912.266 442.611 908.452 459.112 905.588C442.72 910.076 424.643 914.264 408.009 917.989C401.009 903.401 393.512 887.533 387.181 872.697L387.177 872.707Z" fill="#6DA7A3"/>
<path opacity="0.14" d="M396.495 944.256C550.107 932.534 636.097 742.24 641.324 687.459C608.668 708.335 553.849 728.55 527.274 746.768C465.577 776.472 397.692 928.582 396.5 944.246L396.495 944.256Z" fill="#6DA7A3"/>
<path opacity="0.16" d="M379.15 890.368C374.526 882.981 369.902 875.594 365.278 868.207C369.369 716.879 550.302 635.473 647.1 681.648C647.45 683.46 644.513 685.639 641.325 687.459C561.425 707.35 454.219 696.337 427.971 769.997C426.173 790.259 427.611 795.241 408.371 822.449C394.981 839.891 389.632 838.566 383.532 849.348C379.032 857.288 375.159 869.988 379.15 890.368Z" fill="white"/>
<path opacity="0.12" d="M530.918 718.683C524.756 706.463 450.683 742.273 453.492 761.246C455.819 765.525 470.023 761.953 474.215 760.902C506.529 752.762 534.819 725.698 530.918 718.683Z" fill="white"/>
<path opacity="0.12" d="M456.411 782.308C447.916 775.645 436.982 788.048 444.069 795.594C453.055 804.738 467.139 790.904 456.411 782.308Z" fill="white"/>
<path opacity="0.1" d="M472.885 933.438C409.909 959.531 352.592 922.039 348.221 919.061L372.133 863.818C404.136 929.723 407.227 921.341 424.477 881.628C406.363 909.599 436.591 930.828 458.462 912.054C464.864 906.92 466.287 900.765 468.914 894.749C488.746 858.59 528.038 861.281 553.181 804.41C554.909 861.329 522.55 912.856 472.871 933.444L472.885 933.438Z" fill="#6DA7A3"/>
<g opacity="0.28">
<path d="M578.891 698.836C580.057 699.341 580.84 697.531 579.674 697.027C578.508 696.522 577.724 698.331 578.891 698.836Z" fill="#6DA7A3"/>
<path d="M570.945 711.123C572.111 711.628 572.895 709.819 571.728 709.314C570.562 708.809 569.779 710.619 570.945 711.123Z" fill="#6DA7A3"/>
<path d="M576.537 708.302C577.703 708.807 578.486 706.997 577.32 706.492C576.154 705.987 575.37 707.797 576.537 708.302Z" fill="#6DA7A3"/>
<path d="M588.346 701.186C589.512 701.691 590.296 699.881 589.129 699.376C587.963 698.871 587.18 700.681 588.346 701.186Z" fill="#6DA7A3"/>
<path d="M601.732 696.496C602.898 697.001 603.682 695.191 602.516 694.686C601.349 694.181 600.566 695.991 601.732 696.496Z" fill="#6DA7A3"/>
<path d="M619.753 691.197C620.919 691.702 621.702 689.892 620.536 689.387C619.37 688.882 618.586 690.692 619.753 691.197Z" fill="#6DA7A3"/>
<path d="M590.614 716.139C591.781 716.644 592.564 714.834 591.398 714.329C590.231 713.824 589.448 715.634 590.614 716.139Z" fill="#6DA7A3"/>
<path d="M579.654 719.252C580.82 719.757 581.604 717.947 580.437 717.442C579.271 716.938 578.488 718.747 579.654 719.252Z" fill="#6DA7A3"/>
<path d="M593.633 725.303C594.799 725.808 595.583 723.998 594.416 723.493C593.25 722.989 592.467 724.798 593.633 725.303Z" fill="#6DA7A3"/>
<path d="M602.106 709.757C603.272 710.262 604.056 708.452 602.889 707.947C601.723 707.442 600.94 709.252 602.106 709.757Z" fill="#6DA7A3"/>
<path d="M615.805 704.343C616.972 704.848 617.755 703.038 616.589 702.533C615.423 702.028 614.639 703.838 615.805 704.343Z" fill="#6DA7A3"/>
<path d="M388.322 868.736C389.489 869.241 390.272 867.431 389.106 866.926C387.939 866.421 387.156 868.231 388.322 868.736Z" fill="#6DA7A3"/>
<path d="M393.429 883.174C394.595 883.679 395.378 881.869 394.212 881.364C393.046 880.86 392.262 882.669 393.429 883.174Z" fill="#6DA7A3"/>
<path d="M395.842 855.392C397.008 855.897 397.791 854.088 396.625 853.583C395.459 853.078 394.676 854.888 395.842 855.392Z" fill="#6DA7A3"/>
<path d="M399.912 864.14C401.079 864.645 401.862 862.835 400.696 862.331C399.529 861.826 398.746 863.635 399.912 864.14Z" fill="#6DA7A3"/>
<path d="M435.222 879.424C436.388 879.929 437.172 878.12 436.006 877.615C434.839 877.11 434.056 878.92 435.222 879.424Z" fill="#6DA7A3"/>
<path d="M443.665 902.293C444.831 902.798 445.615 900.988 444.448 900.483C443.282 899.978 442.499 901.788 443.665 902.293Z" fill="#6DA7A3"/>
<path d="M425.671 901.489C426.837 901.994 427.621 900.185 426.454 899.68C425.288 899.175 424.505 900.985 425.671 901.489Z" fill="#6DA7A3"/>
<path d="M458.382 876.35C459.548 876.855 460.331 875.045 459.165 874.54C457.999 874.035 457.215 875.845 458.382 876.35Z" fill="#6DA7A3"/>
<path d="M454.225 892.021C455.392 892.526 456.175 890.716 455.009 890.211C453.842 889.706 453.059 891.516 454.225 892.021Z" fill="#6DA7A3"/>
<path d="M437.064 893.321C438.23 893.826 439.014 892.017 437.847 891.512C436.681 891.007 435.898 892.817 437.064 893.321Z" fill="#6DA7A3"/>
<path d="M447.611 915.357C448.777 915.862 449.561 914.052 448.394 913.547C447.228 913.042 446.445 914.852 447.611 915.357Z" fill="#6DA7A3"/>
<path d="M435.084 916.048C436.25 916.553 437.033 914.743 435.867 914.238C434.701 913.733 433.917 915.543 435.084 916.048Z" fill="#6DA7A3"/>
<path d="M421.39 921.477C422.556 921.982 423.339 920.172 422.173 919.667C421.007 919.162 420.223 920.972 421.39 921.477Z" fill="#6DA7A3"/>
<path d="M413.517 915.442C414.684 915.947 415.467 914.137 414.301 913.632C413.134 913.127 412.351 914.937 413.517 915.442Z" fill="#6DA7A3"/>
<path d="M403.786 927.828C404.952 928.332 405.735 926.523 404.569 926.018C403.403 925.513 402.619 927.323 403.786 927.828Z" fill="#6DA7A3"/>
<path d="M394.123 921.902C395.289 922.407 396.072 920.597 394.906 920.092C393.74 919.587 392.957 921.397 394.123 921.902Z" fill="#6DA7A3"/>
<path d="M396.186 907.068C397.352 907.573 398.135 905.763 396.969 905.258C395.803 904.753 395.019 906.563 396.186 907.068Z" fill="#6DA7A3"/>
<path d="M387.158 899.674C388.325 900.178 389.108 898.369 387.942 897.864C386.776 897.359 385.992 899.169 387.158 899.674Z" fill="#6DA7A3"/>
<path d="M401.711 890.246C402.878 890.751 403.661 888.941 402.495 888.436C401.329 887.932 400.545 889.741 401.711 890.246Z" fill="#6DA7A3"/>
<path d="M535.009 814.336C536.175 814.84 536.958 813.031 535.792 812.526C534.626 812.021 533.843 813.831 535.009 814.336Z" fill="#6DA7A3"/>
<path d="M521.528 817.229C522.695 817.734 523.478 815.924 522.312 815.42C521.145 814.915 520.362 816.725 521.528 817.229Z" fill="#6DA7A3"/>
<path d="M521.472 803.234C522.639 803.739 523.422 801.929 522.256 801.424C521.09 800.919 520.306 802.729 521.472 803.234Z" fill="#6DA7A3"/>
<path d="M535.494 797.076C536.66 797.581 537.444 795.771 536.278 795.266C535.111 794.761 534.328 796.571 535.494 797.076Z" fill="#6DA7A3"/>
<path d="M470.155 764.434C471.321 764.939 472.104 763.129 470.938 762.624C469.772 762.119 468.989 763.929 470.155 764.434Z" fill="#6DA7A3"/>
<path d="M458.877 768.281C460.043 768.786 460.826 766.976 459.66 766.471C458.494 765.966 457.71 767.776 458.877 768.281Z" fill="#6DA7A3"/>
<path d="M452.719 754.259C453.885 754.764 454.668 752.955 453.502 752.45C452.336 751.945 451.552 753.755 452.719 754.259Z" fill="#6DA7A3"/>
<path d="M468.428 746.216C469.594 746.721 470.378 744.912 469.211 744.407C468.045 743.902 467.262 745.712 468.428 746.216Z" fill="#6DA7A3"/>
<path d="M470.824 724.541C471.991 725.046 472.774 723.237 471.608 722.732C470.442 722.227 469.658 724.037 470.824 724.541Z" fill="#6DA7A3"/>
<path d="M540.7 754.788C541.866 755.293 542.649 753.483 541.483 752.978C540.317 752.473 539.533 754.283 540.7 754.788Z" fill="#6DA7A3"/>
<path d="M547.87 748.291C549.037 748.796 549.82 746.987 548.654 746.482C547.487 745.977 546.704 747.787 547.87 748.291Z" fill="#6DA7A3"/>
<path d="M566.917 748.678C568.083 749.183 568.866 747.373 567.7 746.869C566.534 746.364 565.75 748.174 566.917 748.678Z" fill="#6DA7A3"/>
</g>
</g>
<path d="M238.336 760.939C249.071 763.338 248.014 750.552 250.898 743.035C260.88 708.992 276.572 702.952 258.212 660.4C249.672 646.16 240.905 648.141 230.323 632.302C220.503 617.589 223.035 608.349 217.448 592.462C184.593 511.07 90.6719 526.016 1.65369 507.983C0.558072 507.825 -0.0802906 509.164 0.716782 509.929C10.7567 519.579 18.7598 527.805 24.3542 533.694C49.4401 560.116 52.2367 567.073 66.5995 574.791C78.2071 581.028 83.2172 580.16 88.5363 587.124C96.111 597.065 91.872 606.637 93.3975 622.575C95.6196 645.723 108.457 666.222 120.857 677.93C137.716 693.87 148.091 688.209 162.424 705.35C175.197 720.622 167.675 728.046 179.589 738.962C185.41 744.299 189.982 745.234 228.568 757.739C232.195 758.916 235.488 759.987 238.352 760.92L238.336 760.939Z" fill="#B1E0DE"/>
<mask id="mask1_32_278" style="mask-type:luminance" maskUnits="userSpaceOnUse" x="0" y="507" width="267" height="255">
<path d="M238.336 760.939C249.071 763.338 248.014 750.552 250.898 743.035C260.88 708.992 276.572 702.952 258.212 660.4C249.672 646.16 240.905 648.141 230.323 632.302C220.503 617.589 223.035 608.349 217.448 592.462C184.593 511.07 90.6719 526.016 1.65369 507.983C0.558072 507.825 -0.0802906 509.164 0.716782 509.929C10.7567 519.579 18.7598 527.805 24.3542 533.694C49.4401 560.116 52.2367 567.073 66.5995 574.791C78.2071 581.028 83.2172 580.16 88.5363 587.124C96.111 597.065 91.872 606.637 93.3975 622.575C95.6196 645.723 108.457 666.222 120.857 677.93C137.716 693.87 148.091 688.209 162.424 705.35C175.197 720.622 167.675 728.046 179.589 738.962C185.41 744.299 189.982 745.234 228.568 757.739C232.195 758.916 235.488 759.987 238.352 760.92L238.336 760.939Z" fill="white"/>
</mask>
<g mask="url(#mask1_32_278)">
<path d="M45.9224 535.273C108.989 555.643 162.917 600.006 195.101 657.913C218.883 703.42 235.873 752.381 261.199 797.231C237.738 751.502 221.169 702.108 197.563 656.513C165.378 598.105 110.235 553.336 45.9224 535.273Z" fill="#6DA7A3"/>
<path d="M88.8896 524.244C92.0609 535.708 95.9795 548.127 99.6727 559.472L100.635 558.22C82.838 556.968 65.0331 555.946 47.1907 555.692C65.3866 557.811 83.6516 559.123 101.939 560.211C97.8902 548.458 93.4411 535.78 88.894 524.254L88.8896 524.244Z" fill="#6DA7A3"/>
<path d="M121.175 528.897C126.148 548 131.564 566.995 137.155 585.925L138.112 584.687C114.581 583.899 88.9794 583.183 65.5233 583.258C89.3698 584.913 115.428 585.885 139.397 586.663C133.593 567.322 127.619 548.032 121.175 528.897Z" fill="#6DA7A3"/>
<path d="M146.602 536.519C150.273 559.457 154.922 584.432 159.242 607.293L160.495 606.189C135.421 598.14 108.167 596.145 82.4363 602.136C108.81 597.657 136.11 600.146 161.466 608.515C156.878 585.114 151.843 559.745 146.612 536.515L146.602 536.519Z" fill="#6DA7A3"/>
<path d="M171.398 546.742C174.703 572.777 175.852 599.1 174.357 625.301L175.476 624.411C144.673 618.961 113.228 616.857 81.9923 618.628C113.555 618.495 145.12 620.988 176.211 626.469C177.637 599.831 176.193 572.992 171.398 546.742Z" fill="#6DA7A3"/>
<path d="M200.437 567.262C195.029 590.548 189.6 616.434 184.791 639.89L185.951 639.149C157.183 632.221 127.381 629.276 97.8366 630.983C127.659 630.911 157.478 634.255 186.48 641.225C191.221 617.392 196.325 591.169 200.437 567.262Z" fill="#6DA7A3"/>
<path d="M211.905 610.72C206.347 625.521 200.616 641.853 195.444 656.857L196.522 656.259C167.923 649.115 137.976 646.912 108.713 650.731C138.281 648.858 168.102 651.294 196.919 658.225C201.949 642.864 207.317 626.163 211.915 610.715L211.905 610.72Z" fill="#6DA7A3"/>
<path d="M225.668 634.46C223.345 649.699 216.126 664.168 205.191 675.016L205.932 674.743C179.811 672.329 152.52 670.028 126.378 668.698C152.482 671.955 179.935 674.437 206.207 676.618C217.345 665.384 224.445 650.226 225.664 634.45L225.668 634.46Z" fill="#6DA7A3"/>
<path d="M240.429 661.828C232.759 675.31 224.775 690.301 217.56 704.088L218.792 703.651C198.089 694.39 174.814 690.469 152.286 693.57C175.054 692.264 198.026 696.507 218.857 705.76C226.049 691.589 233.761 676.19 240.439 661.824L240.429 661.828Z" fill="#6DA7A3"/>
<path d="M250.873 676.521C241.726 690.893 233.034 705.546 224.471 720.274L225.527 719.817C207.171 715.893 187.886 711.977 169.396 708.876C187.786 713.621 207.22 717.938 225.817 721.865C234.418 706.893 242.886 691.836 250.873 676.521Z" fill="#6DA7A3"/>
<path d="M254.864 695.177C247.298 709.092 239.574 724.627 232.607 738.904L233.701 738.37C217.297 734.736 199.43 730.923 182.929 728.059C199.321 732.546 217.398 736.734 234.033 740.46C241.032 725.871 248.529 710.004 254.86 695.167L254.864 695.177Z" fill="#6DA7A3"/>
<path opacity="0.14" d="M245.546 766.726C91.9347 755.005 5.94438 564.71 0.716761 509.93C33.3731 530.806 88.1925 551.02 114.767 569.239C176.464 598.942 244.35 751.052 245.542 766.716L245.546 766.726Z" fill="#6DA7A3"/>
<path opacity="0.16" d="M262.891 712.838C267.515 705.451 272.139 698.064 276.763 690.677C272.672 539.349 91.7389 457.943 -5.05876 504.118C-5.40905 505.93 -2.47146 508.109 0.716648 509.929C80.6158 529.82 187.822 518.808 214.071 592.467C215.868 612.73 214.43 617.711 233.671 644.919C247.06 662.361 252.409 661.037 258.509 671.818C263.009 679.758 266.883 692.458 262.891 712.838Z" fill="white"/>
<path opacity="0.12" d="M111.124 541.153C117.286 528.933 191.358 564.743 188.549 583.716C186.222 587.995 172.018 584.423 167.826 583.372C135.512 575.233 107.222 548.168 111.124 541.153Z" fill="white"/>
<path opacity="0.12" d="M185.63 604.778C194.126 598.115 205.059 610.518 197.972 618.064C188.986 627.208 174.902 613.375 185.63 604.778Z" fill="white"/>
<path opacity="0.1" d="M169.156 755.909C232.133 782.002 289.45 744.509 293.82 741.531L269.908 686.289C237.906 752.193 234.815 743.811 217.564 704.098C235.679 732.069 205.45 753.298 183.579 734.524C177.177 729.39 175.755 723.235 173.127 717.22C153.295 681.06 114.003 683.751 88.86 626.88C87.1323 683.799 119.491 735.326 169.17 755.914L169.156 755.909Z" fill="#6DA7A3"/>
<g opacity="0.28">
<path d="M63.1506 521.307C61.9843 521.811 61.2009 520.002 62.3672 519.497C63.5335 518.992 64.3169 520.802 63.1506 521.307Z" fill="#6DA7A3"/>
<path d="M71.0964 533.594C69.9301 534.099 69.1467 532.289 70.313 531.784C71.4793 531.279 72.2627 533.089 71.0964 533.594Z" fill="#6DA7A3"/>
<path d="M65.5046 530.772C64.3383 531.277 63.5549 529.467 64.7212 528.962C65.8875 528.457 66.6709 530.267 65.5046 530.772Z" fill="#6DA7A3"/>
<path d="M53.6953 523.656C52.529 524.161 51.7456 522.351 52.9119 521.846C54.0782 521.342 54.8616 523.151 53.6953 523.656Z" fill="#6DA7A3"/>
<path d="M40.3091 518.966C39.1428 519.471 38.3594 517.661 39.5257 517.156C40.692 516.651 41.4753 518.461 40.3091 518.966Z" fill="#6DA7A3"/>
<path d="M22.2886 513.667C21.1223 514.172 20.3389 512.362 21.5052 511.857C22.6715 511.352 23.4548 513.162 22.2886 513.667Z" fill="#6DA7A3"/>
<path d="M51.427 538.609C50.2607 539.114 49.4773 537.304 50.6436 536.8C51.8099 536.295 52.5933 538.104 51.427 538.609Z" fill="#6DA7A3"/>
<path d="M62.3872 541.722C61.2209 542.227 60.4375 540.417 61.6038 539.913C62.7701 539.408 63.5535 541.217 62.3872 541.722Z" fill="#6DA7A3"/>
<path d="M48.4082 547.773C47.2419 548.278 46.4585 546.468 47.6248 545.964C48.7911 545.459 49.5745 547.269 48.4082 547.773Z" fill="#6DA7A3"/>
<path d="M39.9353 532.227C38.769 532.732 37.9856 530.922 39.1519 530.417C40.3182 529.913 41.1016 531.722 39.9353 532.227Z" fill="#6DA7A3"/>
<path d="M26.2356 526.813C25.0693 527.318 24.2859 525.508 25.4522 525.004C26.6185 524.499 27.4019 526.309 26.2356 526.813Z" fill="#6DA7A3"/>
<path d="M253.719 691.206C252.553 691.711 251.769 689.901 252.936 689.396C254.102 688.892 254.885 690.701 253.719 691.206Z" fill="#6DA7A3"/>
<path d="M248.613 705.644C247.446 706.149 246.663 704.34 247.829 703.835C248.995 703.33 249.779 705.14 248.613 705.644Z" fill="#6DA7A3"/>
<path d="M246.199 677.863C245.033 678.368 244.25 676.558 245.416 676.053C246.582 675.548 247.366 677.358 246.199 677.863Z" fill="#6DA7A3"/>
<path d="M242.129 686.611C240.963 687.115 240.179 685.306 241.345 684.801C242.512 684.296 243.295 686.106 242.129 686.611Z" fill="#6DA7A3"/>
<path d="M206.819 701.895C205.653 702.4 204.869 700.59 206.036 700.085C207.202 699.58 207.985 701.39 206.819 701.895Z" fill="#6DA7A3"/>
<path d="M198.376 724.763C197.21 725.268 196.427 723.458 197.593 722.953C198.759 722.448 199.542 724.258 198.376 724.763Z" fill="#6DA7A3"/>
<path d="M216.37 723.96C215.204 724.464 214.421 722.655 215.587 722.15C216.753 721.645 217.537 723.455 216.37 723.96Z" fill="#6DA7A3"/>
<path d="M183.66 698.82C182.493 699.325 181.71 697.515 182.876 697.01C184.043 696.506 184.826 698.315 183.66 698.82Z" fill="#6DA7A3"/>
<path d="M187.816 714.491C186.65 714.996 185.866 713.186 187.033 712.681C188.199 712.177 188.982 713.986 187.816 714.491Z" fill="#6DA7A3"/>
<path d="M204.977 715.792C203.811 716.297 203.028 714.487 204.194 713.982C205.36 713.477 206.144 715.287 204.977 715.792Z" fill="#6DA7A3"/>
<path d="M194.43 737.827C193.264 738.332 192.481 736.522 193.647 736.017C194.813 735.512 195.597 737.322 194.43 737.827Z" fill="#6DA7A3"/>
<path d="M206.957 738.518C205.791 739.023 205.008 737.213 206.174 736.708C207.34 736.204 208.124 738.013 206.957 738.518Z" fill="#6DA7A3"/>
<path d="M220.652 743.947C219.485 744.452 218.702 742.642 219.868 742.137C221.034 741.632 221.818 743.442 220.652 743.947Z" fill="#6DA7A3"/>
<path d="M228.524 737.912C227.358 738.417 226.574 736.607 227.741 736.103C228.907 735.598 229.69 737.407 228.524 737.912Z" fill="#6DA7A3"/>
<path d="M238.256 750.298C237.089 750.803 236.306 748.993 237.472 748.488C238.638 747.983 239.422 749.793 238.256 750.298Z" fill="#6DA7A3"/>
<path d="M247.918 744.372C246.752 744.877 245.969 743.067 247.135 742.562C248.301 742.057 249.084 743.867 247.918 744.372Z" fill="#6DA7A3"/>
<path d="M245.856 729.538C244.689 730.043 243.906 728.233 245.072 727.728C246.239 727.223 247.022 729.033 245.856 729.538Z" fill="#6DA7A3"/>
<path d="M254.883 722.144C253.717 722.649 252.933 720.839 254.099 720.334C255.266 719.829 256.049 721.639 254.883 722.144Z" fill="#6DA7A3"/>
<path d="M240.33 712.716C239.164 713.221 238.38 711.412 239.546 710.907C240.713 710.402 241.496 712.212 240.33 712.716Z" fill="#6DA7A3"/>
<path d="M107.032 636.806C105.866 637.311 105.083 635.501 106.249 634.996C107.415 634.491 108.199 636.301 107.032 636.806Z" fill="#6DA7A3"/>
<path d="M120.513 639.7C119.347 640.204 118.563 638.395 119.73 637.89C120.896 637.385 121.679 639.195 120.513 639.7Z" fill="#6DA7A3"/>
<path d="M120.569 625.704C119.403 626.209 118.619 624.399 119.785 623.895C120.952 623.39 121.735 625.199 120.569 625.704Z" fill="#6DA7A3"/>
<path d="M106.547 619.546C105.381 620.051 104.597 618.241 105.763 617.736C106.93 617.231 107.713 619.041 106.547 619.546Z" fill="#6DA7A3"/>
<path d="M171.886 586.904C170.72 587.409 169.937 585.599 171.103 585.094C172.269 584.589 173.053 586.399 171.886 586.904Z" fill="#6DA7A3"/>
<path d="M183.165 590.751C181.998 591.256 181.215 589.446 182.381 588.942C183.547 588.437 184.331 590.247 183.165 590.751Z" fill="#6DA7A3"/>
<path d="M189.323 576.73C188.156 577.235 187.373 575.425 188.539 574.92C189.706 574.415 190.489 576.225 189.323 576.73Z" fill="#6DA7A3"/>
<path d="M173.613 568.687C172.447 569.192 171.664 567.382 172.83 566.877C173.996 566.372 174.78 568.182 173.613 568.687Z" fill="#6DA7A3"/>
<path d="M171.217 547.012C170.05 547.516 169.267 545.707 170.433 545.202C171.6 544.697 172.383 546.507 171.217 547.012Z" fill="#6DA7A3"/>
<path d="M101.342 577.258C100.175 577.763 99.3919 575.953 100.558 575.448C101.724 574.944 102.508 576.753 101.342 577.258Z" fill="#6DA7A3"/>
<path d="M94.1709 570.762C93.0046 571.266 92.2212 569.457 93.3875 568.952C94.5538 568.447 95.3372 570.257 94.1709 570.762Z" fill="#6DA7A3"/>
<path d="M75.1247 571.149C73.9584 571.653 73.1751 569.844 74.3413 569.339C75.5076 568.834 76.291 570.644 75.1247 571.149Z" fill="#6DA7A3"/>
</g>
</g>
<path d="M323.154 870.244C317.463 864.298 307.748 860.738 298.857 858.162C289.331 854.46 290.297 852.083 282.012 848.921C270.252 844.433 262.364 846.942 261.095 847.444C258.482 846.894 255.84 846.412 253.198 846.042C267.837 844.953 277.173 840.872 290.24 839.452C297.105 838.837 302.957 839.244 307.142 839.783C307.568 839.831 307.729 839.253 307.341 839.054C280.014 824.359 270.46 839.802 247.991 845.436C240.501 844.736 232.916 844.802 225.398 845.626C242.584 832.881 270.839 825.826 298.961 823.156C272.723 809.256 234.213 831.754 224.167 845.768C216.583 846.752 209.083 848.485 201.868 851.07C229.1 827.086 221.459 813.138 266.218 801.539C246.589 796.293 222.368 812.371 217.075 823.374C214.083 827.947 215.247 827.91 211.119 834.898C206.053 843.476 200.864 849.309 197.872 852.557C189.17 855.956 180.98 860.567 173.235 865.756C195.723 838.922 178.887 830.608 211.81 801.709C199.529 808.499 184.872 820.079 179.55 838.221C176.407 859.592 174.039 866.334 154.278 879.95C158.577 872.034 161.001 856.25 161.967 844.556C163.378 836.924 165.906 830.798 168.074 826.489C168.254 826.129 167.837 825.789 167.515 826.016C149.743 840.768 154.609 842.662 152.896 866.608C152.252 874.771 151.21 880.101 150.756 882.933C141.95 890.688 133.882 899.541 127.008 909.057C138.626 884.741 140.738 866.949 138.986 845.152C133.324 864.26 129.811 890.318 125.209 911.538C121.677 916.499 118.496 921.726 115.522 927.048C122.378 907.229 118.287 901.899 117.757 882.27C117.71 874.07 118.552 867.158 119.414 862.12C119.48 861.704 118.922 861.495 118.713 861.865C97.0393 897.978 119.632 898.774 111.99 933.723C109.32 939.026 106.849 944.603 104.718 950.151C101.717 933.089 104.908 930.542 101.262 915.657C99.5959 910.638 98.0051 909.824 96.5659 906.017C92.7499 895.848 98.4691 886.635 97.3139 886.18C95.8841 885.641 85.7336 898.963 89.6631 909.218C91.1971 913.233 93.4506 913.015 96.2913 918.526C101.215 929.926 98.2608 938.855 104.046 951.865C102.597 955.691 101.281 959.582 100.117 963.502C100.476 963.711 100.836 963.91 101.215 964.108C102.853 959.961 104.576 955.852 106.432 951.799C124.783 944.527 151.816 966.76 162.857 941.279C163.027 939.632 156.522 944.678 153.719 944.745C141.713 947.027 119.916 940.152 107.455 949.564C110.438 943.211 113.723 936.99 117.255 930.939C128.154 926.006 133.362 929.434 143.427 931.612C149.951 932.35 153.814 929.85 160.632 928.828C167.752 927.767 174.721 926.82 181.548 925.997C181.984 925.949 181.984 925.315 181.548 925.249C166.275 922.503 159.865 924.491 146.466 924.841C131.648 924.396 130.095 921.054 118.751 928.411C122.87 921.527 127.557 914.805 132.386 908.394C145.34 905.156 152.365 904.323 169.04 909.994C180.573 914.549 182.135 919.482 189.521 920.098C193.337 920.41 198.8 919.577 205.76 914.274C206.072 914.038 205.864 913.526 205.466 913.583C180.024 918.298 173.509 889.618 134.214 906.169C140.302 898.528 146.892 891.161 154.174 884.628C171.805 880.679 182.855 883.378 189.909 887.014C194.028 889.371 218.618 903.092 225.379 902.95C233.267 903.631 245.074 903.622 230.36 900.081C202.266 887.733 188.877 868.568 157.365 881.815C166.133 874.335 175.422 867.271 185.364 861.476C199.274 865.718 200.656 872.29 210.371 881.115C221.383 889.693 233.702 892.496 244.44 892.78C244.894 892.79 244.961 892.146 244.525 892.042C218.666 887.108 213.439 859.923 187.76 860.122C193.27 857.092 199.018 854.517 204.964 852.443C215.882 856.221 238.304 877.867 244.231 883.264C257.156 892.259 273.802 890.242 273.954 889.239C235.085 884.059 241.173 854.327 209.348 851.004C227.386 843.514 244.336 850.549 254.969 860.094C265.744 872.309 276.757 880.812 292.664 879.6C293.081 879.59 293.176 878.994 292.768 878.861C282.343 875.414 274.872 870.604 269.475 866.002C259.344 856.467 254.439 848.23 241.059 846.497C266.767 846.118 263.273 852.85 298.232 864.525C302.587 866.173 315.654 869.809 322.841 870.907C323.201 870.974 323.438 870.51 323.154 870.254V870.244ZM104.633 952.396C104.766 952.348 104.898 952.301 105.04 952.254C105.23 953.049 104.255 952.973 104.207 952.272C104.302 952.396 104.463 952.462 104.633 952.396Z" fill="#3F605F"/>
<mask id="mask2_32_278" style="mask-type:luminance" maskUnits="userSpaceOnUse" x="88" y="800" width="236" height="165">
<path d="M323.154 870.244C317.463 864.298 307.748 860.738 298.857 858.162C289.331 854.46 290.297 852.083 282.012 848.921C270.252 844.433 262.364 846.942 261.095 847.444C258.482 846.894 255.84 846.412 253.198 846.042C267.837 844.953 277.173 840.872 290.24 839.452C297.105 838.837 302.957 839.244 307.142 839.783C307.568 839.831 307.729 839.253 307.341 839.054C280.014 824.359 270.46 839.802 247.991 845.436C240.501 844.736 232.916 844.802 225.398 845.626C242.584 832.881 270.839 825.826 298.961 823.156C272.723 809.256 234.213 831.754 224.167 845.768C216.583 846.752 209.083 848.485 201.868 851.07C229.1 827.086 221.459 813.138 266.218 801.539C246.589 796.293 222.368 812.371 217.075 823.374C214.083 827.947 215.247 827.91 211.119 834.898C206.053 843.476 200.864 849.309 197.872 852.557C189.17 855.956 180.98 860.567 173.235 865.756C195.723 838.922 178.887 830.608 211.81 801.709C199.529 808.499 184.872 820.079 179.55 838.221C176.407 859.592 174.039 866.334 154.278 879.95C158.577 872.034 161.001 856.25 161.967 844.556C163.378 836.924 165.906 830.798 168.074 826.489C168.254 826.129 167.837 825.789 167.515 826.016C149.743 840.768 154.609 842.662 152.896 866.608C152.252 874.771 151.21 880.101 150.756 882.933C141.95 890.688 133.882 899.541 127.008 909.057C138.626 884.741 140.738 866.949 138.986 845.152C133.324 864.26 129.811 890.318 125.209 911.538C121.677 916.499 118.496 921.726 115.522 927.048C122.378 907.229 118.287 901.899 117.757 882.27C117.71 874.07 118.552 867.158 119.414 862.12C119.48 861.704 118.922 861.495 118.713 861.865C97.0393 897.978 119.632 898.774 111.99 933.723C109.32 939.026 106.849 944.603 104.718 950.151C101.717 933.089 104.908 930.542 101.262 915.657C99.5959 910.638 98.0051 909.824 96.5659 906.017C92.7499 895.848 98.4691 886.635 97.3139 886.18C95.8841 885.641 85.7336 898.963 89.6631 909.218C91.1971 913.233 93.4506 913.015 96.2913 918.526C101.215 929.926 98.2608 938.855 104.046 951.865C102.597 955.691 101.281 959.582 100.117 963.502C100.476 963.711 100.836 963.91 101.215 964.108C102.853 959.961 104.576 955.852 106.432 951.799C124.783 944.527 151.816 966.76 162.857 941.279C163.027 939.632 156.522 944.678 153.719 944.745C141.713 947.027 119.916 940.152 107.455 949.564C110.438 943.211 113.723 936.99 117.255 930.939C128.154 926.006 133.362 929.434 143.427 931.612C149.951 932.35 153.814 929.85 160.632 928.828C167.752 927.767 174.721 926.82 181.548 925.997C181.984 925.949 181.984 925.315 181.548 925.249C166.275 922.503 159.865 924.491 146.466 924.841C131.648 924.396 130.095 921.054 118.751 928.411C122.87 921.527 127.557 914.805 132.386 908.394C145.34 905.156 152.365 904.323 169.04 909.994C180.573 914.549 182.135 919.482 189.521 920.098C193.337 920.41 198.8 919.577 205.76 914.274C206.072 914.038 205.864 913.526 205.466 913.583C180.024 918.298 173.509 889.618 134.214 906.169C140.302 898.528 146.892 891.161 154.174 884.628C171.805 880.679 182.855 883.378 189.909 887.014C194.028 889.371 218.618 903.092 225.379 902.95C233.267 903.631 245.074 903.622 230.36 900.081C202.266 887.733 188.877 868.568 157.365 881.815C166.133 874.335 175.422 867.271 185.364 861.476C199.274 865.718 200.656 872.29 210.371 881.115C221.383 889.693 233.702 892.496 244.44 892.78C244.894 892.79 244.961 892.146 244.525 892.042C218.666 887.108 213.439 859.923 187.76 860.122C193.27 857.092 199.018 854.517 204.964 852.443C215.882 856.221 238.304 877.867 244.231 883.264C257.156 892.259 273.802 890.242 273.954 889.239C235.085 884.059 241.173 854.327 209.348 851.004C227.386 843.514 244.336 850.549 254.969 860.094C265.744 872.309 276.757 880.812 292.664 879.6C293.081 879.59 293.176 878.994 292.768 878.861C282.343 875.414 274.872 870.604 269.475 866.002C259.344 856.467 254.439 848.23 241.059 846.497C266.767 846.118 263.273 852.85 298.232 864.525C302.587 866.173 315.654 869.809 322.841 870.907C323.201 870.974 323.438 870.51 323.154 870.254V870.244ZM104.633 952.396C104.766 952.348 104.898 952.301 105.04 952.254C105.23 953.049 104.255 952.973 104.207 952.272C104.302 952.396 104.463 952.462 104.633 952.396Z" fill="white"/>
</mask>
<g mask="url(#mask2_32_278)">
<path opacity="0.08" d="M312.141 833.751C285.165 825.741 281.756 829.121 256.872 835.816C251.986 835.92 251.21 843.561 256.134 843.457C265.214 843.258 272.742 837.927 281.643 836.924C291.026 835.863 300.495 838.495 309.462 840.938C314.196 842.236 316.904 835.049 312.141 833.742V833.751Z" fill="white"/>
<path opacity="0.08" d="M215.683 808.735C219.054 805.194 214.14 799.285 210.731 802.874C203.714 810.25 195.789 817.409 190.364 826.091C185.534 833.827 182.694 842.529 181.861 851.6C181.406 856.524 189.047 857.253 189.502 852.339C190.401 834.178 203.421 820.77 215.683 808.745V808.735Z" fill="white"/>
<path opacity="0.08" d="M303.837 817.816C274.929 810.752 246.636 817.939 223.324 836.043C219.215 838.76 224.195 844.612 228.276 841.904C239.128 834.708 250.414 827.237 263.33 824.444C276.482 821.584 289.994 823.156 303.108 825.466C307.985 826.328 308.676 818.677 303.847 817.825L303.837 817.816Z" fill="white"/>
<path opacity="0.08" d="M229.877 814.757C241.561 803.783 257.223 797.316 273.301 797.392C278.205 797.42 278.972 789.779 274.039 789.75C249.619 789.495 225.512 802.505 213.013 823.62C208.96 830.438 205.741 838.969 198.44 842.984C194.132 845.351 197.38 852.31 201.726 849.924C215.446 842.122 218.164 824.737 229.886 814.757H229.877Z" fill="white"/>
<path opacity="0.08" d="M328.731 870.235C318.59 853.466 293.895 860.766 283.328 843.968C280.393 840.001 274.531 844.963 277.467 848.93C291.064 869.042 311.639 859.876 321.79 873.52C324.261 877.744 331.23 874.515 328.731 870.235Z" fill="white"/>
<path opacity="0.08" d="M167.752 817.825C149.506 833.023 161.796 849.498 155.121 866.893C152.895 871.305 160.111 873.937 162.317 869.572C169.542 854.858 157.98 835.409 172.714 823.696C176.435 820.458 171.502 814.578 167.761 817.835L167.752 817.825Z" fill="white"/>
<path opacity="0.08" d="M203.127 913.564C181.567 926.536 176.927 894.077 136.912 905.781C132.149 906.964 133.428 914.53 138.228 913.337C168.67 905.516 169.466 920.088 191.859 924.396C197.806 924.595 203.222 922.787 208.07 919.425C212.123 916.613 207.152 910.761 203.118 913.564H203.127Z" fill="white"/>
<path opacity="0.08" d="M117.823 847.822C105.959 867.631 103.838 891.189 107.881 913.574C103.876 900.829 97.4748 896.397 104.709 882.459C106.527 877.848 99.3212 875.187 97.5127 879.78C94.3501 887.809 91.6799 896.596 95.9598 904.749C100.467 913.346 102.891 923.014 102.616 932.786C103.298 938.95 112.189 938.95 110.201 928.648C121.26 928.44 112.076 896.918 113.6 889.097C114.13 876.162 117.71 863.493 124.11 852.235C126.534 847.974 120.276 843.524 117.833 847.822H117.823Z" fill="white"/>
<path opacity="0.08" d="M132.443 844.092C128.637 861.126 129.404 879.06 121.885 895.251C120.048 899.853 127.254 902.514 129.082 897.931C136.59 881.758 136.117 863.825 139.63 846.771C141.012 842.046 133.825 839.348 132.434 844.092H132.443Z" fill="white"/>
<path opacity="0.08" d="M240.605 904.076C206.763 899.238 203.108 868.597 158.596 882.942C153.852 884.192 155.13 891.758 159.912 890.498C175.223 885.376 192.163 885.489 205.22 896C215.853 903.006 226.506 911.547 239.866 911.708C244.78 911.765 245.547 904.124 240.605 904.067V904.076Z" fill="white"/>
<path opacity="0.08" d="M300.911 878.87C276.368 881.531 262.809 868.597 247.64 851.534C244.174 848.059 238.275 852.983 241.779 856.496C250.017 864.762 258.075 874.619 268.32 880.471C278.025 886.01 289.236 886.834 300.173 886.512C305.049 886.37 305.835 878.728 300.911 878.87Z" fill="white"/>
<path opacity="0.08" d="M248.577 889.03C229.763 887.203 215.759 873.824 205.466 858.958C202.654 854.905 196.812 859.876 199.605 863.91C211.043 880.423 227.074 894.655 247.839 896.662C252.763 897.136 253.492 889.494 248.577 889.021V889.03Z" fill="white"/>
<path opacity="0.08" d="M278.754 887.724C257.402 881.219 240.027 875.339 231.808 852.538C229.725 848.069 222.775 851.335 224.868 855.823C229.602 865.983 234.838 875.907 244.591 882.08C254.117 888.121 265.536 891.17 276.084 894.92C280.743 896.577 283.422 889.381 278.764 887.724H278.754Z" fill="white"/>
<path opacity="0.08" d="M179.048 925.286C169.845 928.42 160.054 929.765 150.348 929.074C141.239 928.43 132.358 925.854 123.22 927.72C118.391 928.705 119.688 936.27 124.536 935.276C134.365 933.268 144.392 936.8 154.287 936.895C163.908 936.98 173.244 935.323 182.334 932.217C186.993 930.627 183.688 923.696 179.048 925.277V925.286Z" fill="white"/>
<path opacity="0.08" d="M163.112 937.757C151.854 943.523 139.81 940.692 128.049 938.77C124.347 938.685 120.692 939.319 117.066 939.991C112.218 940.891 113.524 948.456 118.382 947.547C126.582 945.152 134.545 947.661 142.669 948.892C150.831 949.564 158.937 948.002 166.398 944.688C170.905 942.68 167.638 935.74 163.112 937.747V937.757Z" fill="white"/>
</g>
<path d="M104.34 952.613C104.292 952.5 104.254 952.386 104.207 952.272C104.406 952.566 104.766 952.339 105.04 952.253C105.239 952.736 104.567 953.115 104.34 952.613Z" fill="#3F605F"/>
<path d="M104.34 952.613C104.292 952.5 104.254 952.386 104.207 952.272C104.406 952.566 104.766 952.339 105.04 952.253C105.239 952.736 104.567 953.115 104.34 952.613Z" fill="#3F605F"/>
<path d="M378.199 93.864C383.889 99.8103 393.604 103.371 402.496 105.946C412.021 109.648 411.055 112.025 419.34 115.188C431.101 119.676 438.988 117.167 440.257 116.665C442.87 117.214 445.512 117.697 448.154 118.066C433.515 119.155 424.179 123.236 411.112 124.656C404.247 125.272 398.396 124.865 394.21 124.325C393.784 124.278 393.623 124.855 394.011 125.054C421.338 139.75 430.892 124.306 453.362 118.672C460.852 119.373 468.436 119.307 475.954 118.483C458.768 131.228 430.514 138.282 402.391 140.952C428.629 154.852 467.139 132.355 477.185 118.341C484.77 117.356 492.269 115.623 499.484 113.038C472.252 137.023 479.893 150.97 435.134 162.569C454.763 167.815 478.984 151.737 484.277 140.734C487.269 136.161 486.105 136.199 490.233 129.211C495.299 120.632 500.488 114.799 503.48 111.552C512.182 108.152 520.372 103.541 528.118 98.3522C505.629 125.187 522.465 133.5 489.542 162.399C501.823 155.61 516.481 144.03 521.802 125.887C524.946 104.516 527.313 97.7746 547.074 84.1585C542.775 92.0744 540.351 107.859 539.386 119.553C537.975 127.185 535.447 133.311 533.278 137.619C533.098 137.979 533.515 138.32 533.837 138.093C551.61 123.34 546.743 121.446 548.457 97.5C549.101 89.3379 550.142 84.007 550.597 81.1758C559.403 73.4209 567.47 64.5676 574.344 55.0514C562.726 79.3673 560.615 97.1591 562.366 118.956C568.029 99.8482 571.542 73.7902 576.143 52.5706C579.675 47.609 582.857 42.3822 585.83 37.0608C578.975 56.8789 583.065 62.2098 583.595 81.8386C583.643 90.0386 582.8 96.9508 581.938 101.988C581.872 102.405 582.431 102.613 582.639 102.244C604.313 66.1299 581.721 65.3345 589.362 30.3853C592.032 25.0828 594.503 19.5057 596.634 13.957C599.635 31.0197 596.444 33.5668 600.09 48.4517C601.756 53.4702 603.347 54.2845 604.786 58.0909C608.602 68.2604 602.883 77.4735 604.038 77.928C605.468 78.4677 615.619 65.1452 611.689 54.8905C610.155 50.8757 607.902 51.0935 605.061 45.5827C600.137 34.1823 603.092 25.2532 597.306 12.2431C598.755 8.41772 600.071 4.52606 601.236 0.605985C600.876 0.397672 600.516 0.198828 600.137 -1.58338e-05C598.499 4.14731 596.776 8.25676 594.92 12.3094C576.569 19.5814 549.536 -2.65127 538.496 22.8292C538.325 24.4768 544.83 19.4299 547.633 19.3636C559.639 17.0817 581.436 23.956 593.897 14.544C590.915 20.8976 587.629 27.1186 584.097 33.1691C573.199 38.1023 567.991 34.6746 557.925 32.4968C551.401 31.7582 547.538 34.258 540.721 35.2806C533.6 36.3411 526.631 37.288 519.804 38.1118C519.369 38.1591 519.369 38.7936 519.804 38.8598C535.077 41.6058 541.488 39.6173 554.886 39.267C569.705 39.712 571.258 43.0545 582.601 35.6973C578.482 42.5811 573.795 49.3039 568.966 55.7143C556.013 58.9526 548.987 59.7858 532.312 54.114C520.779 49.5596 519.217 44.6263 511.831 44.0108C508.016 43.6984 502.552 44.5316 495.593 49.8342C495.28 50.0709 495.488 50.5822 495.886 50.5254C521.329 45.8099 527.843 74.4908 567.139 57.9394C561.05 65.5807 554.46 72.9474 547.178 79.4809C529.548 83.4294 518.497 80.7308 511.443 77.0948C507.324 74.737 482.734 61.0168 475.973 61.1588C468.086 60.477 456.278 60.4865 470.993 64.0278C499.086 76.3751 512.475 95.5399 543.987 82.2931C535.219 89.7734 525.93 96.8371 515.988 102.632C502.079 98.39 500.696 91.8187 490.981 82.9938C479.969 74.4151 467.65 71.6123 456.913 71.3283C456.458 71.3188 456.392 71.9627 456.827 72.0668C482.687 77.0001 487.913 104.185 513.593 103.986C508.082 107.016 502.334 109.592 496.388 111.665C485.47 107.887 463.048 86.2416 457.121 80.8444C444.196 71.849 427.55 73.8659 427.398 74.8696C466.268 80.049 460.179 109.781 492.004 113.105C473.966 120.594 457.017 113.559 446.383 104.014C435.608 91.7998 424.596 83.2968 408.688 84.5088C408.271 84.5183 408.177 85.1148 408.584 85.2474C419.009 88.694 426.48 93.5041 431.877 98.106C442.009 107.641 446.914 115.879 460.293 117.612C434.585 117.99 438.079 111.258 403.12 99.5831C398.765 97.9355 385.698 94.2995 378.511 93.2011C378.151 93.1349 377.915 93.5988 378.199 93.8545V93.864ZM596.719 11.7129C596.586 11.7602 596.454 11.8076 596.312 11.8549C596.123 11.0595 597.098 11.1353 597.145 11.836C597.05 11.7129 596.889 11.6466 596.719 11.7129Z" fill="#FBF7EE"/>
<mask id="mask3_32_278" style="mask-type:luminance" maskUnits="userSpaceOnUse" x="378" y="0" width="235" height="164">
<path d="M378.199 93.864C383.889 99.8103 393.604 103.371 402.496 105.946C412.021 109.648 411.055 112.025 419.34 115.188C431.101 119.676 438.988 117.167 440.257 116.665C442.87 117.214 445.512 117.697 448.154 118.066C433.515 119.155 424.179 123.236 411.112 124.656C404.247 125.272 398.396 124.865 394.21 124.325C393.784 124.278 393.623 124.855 394.011 125.054C421.338 139.75 430.892 124.306 453.362 118.672C460.852 119.373 468.436 119.307 475.954 118.483C458.768 131.228 430.514 138.282 402.391 140.952C428.629 154.852 467.139 132.355 477.185 118.341C484.77 117.356 492.269 115.623 499.484 113.038C472.252 137.023 479.893 150.97 435.134 162.569C454.763 167.815 478.984 151.737 484.277 140.734C487.269 136.161 486.105 136.199 490.233 129.211C495.299 120.632 500.488 114.799 503.48 111.552C512.182 108.152 520.372 103.541 528.118 98.3522C505.629 125.187 522.465 133.5 489.542 162.399C501.823 155.61 516.481 144.03 521.802 125.887C524.946 104.516 527.313 97.7746 547.074 84.1585C542.775 92.0744 540.351 107.859 539.386 119.553C537.975 127.185 535.447 133.311 533.278 137.619C533.098 137.979 533.515 138.32 533.837 138.093C551.61 123.34 546.743 121.446 548.457 97.5C549.101 89.3379 550.142 84.007 550.597 81.1758C559.403 73.4209 567.47 64.5676 574.344 55.0514C562.726 79.3673 560.615 97.1591 562.366 118.956C568.029 99.8482 571.542 73.7902 576.143 52.5706C579.675 47.609 582.857 42.3822 585.83 37.0608C578.975 56.8789 583.065 62.2098 583.595 81.8386C583.643 90.0386 582.8 96.9508 581.938 101.988C581.872 102.405 582.431 102.613 582.639 102.244C604.313 66.1299 581.721 65.3345 589.362 30.3853C592.032 25.0828 594.503 19.5057 596.634 13.957C599.635 31.0197 596.444 33.5668 600.09 48.4517C601.756 53.4702 603.347 54.2845 604.786 58.0909C608.602 68.2604 602.883 77.4735 604.038 77.928C605.468 78.4677 615.619 65.1452 611.689 54.8905C610.155 50.8757 607.902 51.0935 605.061 45.5827C600.137 34.1823 603.092 25.2532 597.306 12.2431C598.755 8.41772 600.071 4.52606 601.236 0.605985C600.876 0.397672 600.516 0.198828 600.137 -1.58338e-05C598.499 4.14731 596.776 8.25676 594.92 12.3094C576.569 19.5814 549.536 -2.65127 538.496 22.8292C538.325 24.4768 544.83 19.4299 547.633 19.3636C559.639 17.0817 581.436 23.956 593.897 14.544C590.915 20.8976 587.629 27.1186 584.097 33.1691C573.199 38.1023 567.991 34.6746 557.925 32.4968C551.401 31.7582 547.538 34.258 540.721 35.2806C533.6 36.3411 526.631 37.288 519.804 38.1118C519.369 38.1591 519.369 38.7936 519.804 38.8598C535.077 41.6058 541.488 39.6173 554.886 39.267C569.705 39.712 571.258 43.0545 582.601 35.6973C578.482 42.5811 573.795 49.3039 568.966 55.7143C556.013 58.9526 548.987 59.7858 532.312 54.114C520.779 49.5596 519.217 44.6263 511.831 44.0108C508.016 43.6984 502.552 44.5316 495.593 49.8342C495.28 50.0709 495.488 50.5822 495.886 50.5254C521.329 45.8099 527.843 74.4908 567.139 57.9394C561.05 65.5807 554.46 72.9474 547.178 79.4809C529.548 83.4294 518.497 80.7308 511.443 77.0948C507.324 74.737 482.734 61.0168 475.973 61.1588C468.086 60.477 456.278 60.4865 470.993 64.0278C499.086 76.3751 512.475 95.5399 543.987 82.2931C535.219 89.7734 525.93 96.8371 515.988 102.632C502.079 98.39 500.696 91.8187 490.981 82.9938C479.969 74.4151 467.65 71.6123 456.913 71.3283C456.458 71.3188 456.392 71.9627 456.827 72.0668C482.687 77.0001 487.913 104.185 513.593 103.986C508.082 107.016 502.334 109.592 496.388 111.665C485.47 107.887 463.048 86.2416 457.121 80.8444C444.196 71.849 427.55 73.8659 427.398 74.8696C466.268 80.049 460.179 109.781 492.004 113.105C473.966 120.594 457.017 113.559 446.383 104.014C435.608 91.7998 424.596 83.2968 408.688 84.5088C408.271 84.5183 408.177 85.1148 408.584 85.2474C419.009 88.694 426.48 93.5041 431.877 98.106C442.009 107.641 446.914 115.879 460.293 117.612C434.585 117.99 438.079 111.258 403.12 99.5831C398.765 97.9355 385.698 94.2995 378.511 93.2011C378.151 93.1349 377.915 93.5988 378.199 93.8545V93.864ZM596.719 11.7129C596.586 11.7602 596.454 11.8076 596.312 11.8549C596.123 11.0595 597.098 11.1353 597.145 11.836C597.05 11.7129 596.889 11.6466 596.719 11.7129Z" fill="white"/>
</mask>
<g mask="url(#mask3_32_278)">
<path opacity="0.08" d="M389.211 130.357C416.187 138.367 419.596 134.987 444.48 128.292C449.366 128.188 450.142 120.547 445.219 120.651C436.138 120.85 428.61 126.181 419.71 127.185C410.326 128.245 400.857 125.613 391.89 123.17C387.156 121.873 384.448 129.059 389.211 130.366V130.357Z" fill="#FBF7EE"/>
<path opacity="0.08" d="M485.669 155.373C482.298 158.914 487.213 164.823 490.621 161.234C497.638 153.858 505.563 146.7 510.989 138.017C515.818 130.281 518.658 121.579 519.492 112.508C519.946 107.584 512.305 106.855 511.85 111.769C510.951 129.931 497.931 143.338 485.669 155.364V155.373Z" fill="#FBF7EE"/>
<path opacity="0.08" d="M397.515 146.293C426.423 153.356 454.716 146.17 478.028 128.065C482.137 125.348 477.157 119.496 473.076 122.204C462.225 129.4 450.938 136.871 438.022 139.665C424.87 142.524 411.358 140.952 398.244 138.642C393.368 137.78 392.677 145.431 397.506 146.283L397.515 146.293Z" fill="#FBF7EE"/>
<path opacity="0.08" d="M471.476 149.351C459.791 160.325 444.13 166.793 428.052 166.717C423.147 166.688 422.38 174.33 427.313 174.358C451.733 174.614 475.841 161.604 488.339 140.488C492.392 133.671 495.611 125.139 502.912 121.125C507.22 118.757 503.972 111.798 499.626 114.184C485.906 121.986 483.188 139.371 471.466 149.351H471.476Z" fill="#FBF7EE"/>
<path opacity="0.08" d="M372.622 93.8735C382.763 110.643 407.457 103.342 418.024 120.14C420.96 124.107 426.821 119.146 423.886 115.178C410.288 95.0665 389.713 104.232 379.562 90.5878C377.091 86.3647 370.122 89.5936 372.622 93.8735Z" fill="#FBF7EE"/>
<path opacity="0.08" d="M533.6 146.283C551.847 131.086 539.556 114.61 546.232 97.2159C548.457 92.8034 541.242 90.1711 539.035 94.5362C531.811 109.251 543.372 128.7 528.639 140.412C524.917 143.651 529.851 149.531 533.591 146.274L533.6 146.283Z" fill="#FBF7EE"/>
<path opacity="0.08" d="M498.225 50.5444C519.785 37.5722 524.425 70.0312 564.44 58.3277C569.203 57.1441 567.925 49.5786 563.124 50.7717C532.682 58.5929 531.887 44.0204 509.493 39.7121C503.546 39.5133 498.13 41.3218 493.282 44.6832C489.23 47.4955 494.201 53.3472 498.234 50.5444H498.225Z" fill="#FBF7EE"/>
<path opacity="0.08" d="M583.529 116.286C595.393 96.4774 597.514 72.9191 593.471 50.5349C597.477 63.2799 603.878 67.7113 596.643 81.6493C594.825 86.2606 602.031 88.9213 603.84 84.329C607.002 76.2995 609.672 67.5124 605.393 59.3598C600.885 50.7622 598.461 41.0946 598.736 31.3228C598.054 25.1586 589.163 25.1586 591.151 35.4606C580.092 35.669 589.277 67.1905 587.752 75.0117C587.222 87.9461 583.643 100.615 577.242 111.874C574.818 116.135 581.077 120.585 583.52 116.286H583.529Z" fill="#FBF7EE"/>
<path opacity="0.08" d="M568.909 120.017C572.716 102.982 571.949 85.0486 579.467 68.857C581.304 64.2552 574.098 61.5944 572.271 66.1773C564.762 82.35 565.235 100.284 561.722 117.337C560.34 122.062 567.527 124.761 568.919 120.017H568.909Z" fill="#FBF7EE"/>
<path opacity="0.08" d="M460.748 60.032C494.589 64.8706 498.244 95.5115 542.757 81.1663C547.5 79.9164 546.222 72.3509 541.44 73.6102C526.129 78.7328 509.19 78.6192 496.132 68.1089C485.499 61.102 474.847 52.5612 461.486 52.4002C456.572 52.3434 455.805 59.9847 460.748 60.0415V60.032Z" fill="#FBF7EE"/>
<path opacity="0.08" d="M400.441 85.2381C424.984 82.5773 438.543 95.5117 453.712 112.574C457.178 116.049 463.077 111.126 459.574 107.613C451.336 99.3465 443.278 89.4895 433.033 83.6378C423.327 78.0986 412.116 77.2748 401.18 77.5967C396.303 77.7388 395.517 85.3801 400.441 85.2381Z" fill="#FBF7EE"/>
<path opacity="0.08" d="M452.775 75.0779C471.589 76.9054 485.594 90.2848 495.886 105.151C498.698 109.203 504.541 104.232 501.747 100.199C490.309 83.685 474.278 69.4534 453.513 67.4461C448.59 66.9726 447.861 74.6139 452.775 75.0874V75.0779Z" fill="#FBF7EE"/>
<path opacity="0.08" d="M422.598 76.3846C443.95 82.8897 461.325 88.7698 469.544 111.571C471.627 116.04 478.577 112.773 476.485 108.285C471.75 98.1249 466.514 88.2016 456.761 82.028C447.236 75.9869 435.816 72.938 425.268 69.1883C420.61 67.5313 417.93 74.7276 422.589 76.3846H422.598Z" fill="#FBF7EE"/>
<path opacity="0.08" d="M522.304 38.822C531.508 35.6878 541.298 34.3432 551.004 35.0345C560.113 35.6783 568.995 38.2538 578.132 36.3885C582.961 35.4037 581.664 27.8382 576.816 28.8324C566.987 30.8398 556.96 27.3079 547.065 27.2133C537.445 27.128 528.108 28.7851 519.018 31.8908C514.36 33.4816 517.664 40.4127 522.304 38.8314V38.822Z" fill="#FBF7EE"/>
<path opacity="0.08" d="M538.24 26.3516C549.498 20.5852 561.543 23.4163 573.303 25.3385C577.005 25.4237 580.66 24.7893 584.287 24.117C589.135 23.2175 587.828 15.6519 582.97 16.5609C574.77 18.9565 566.807 16.4473 558.683 15.2163C550.521 14.5441 542.416 16.1064 534.954 19.4205C530.447 21.4279 533.714 28.3685 538.24 26.3611V26.3516Z" fill="#FBF7EE"/>
</g>
<path d="M597.013 11.4953C597.06 11.6089 597.098 11.7224 597.145 11.836C596.946 11.5426 596.587 11.7698 596.312 11.855C596.113 11.3722 596.786 10.9935 597.013 11.4953Z" fill="#FBF7EE"/>
<path d="M597.013 11.4953C597.06 11.6089 597.098 11.7224 597.145 11.836C596.946 11.5426 596.587 11.7698 596.312 11.855C596.113 11.3722 596.786 10.9935 597.013 11.4953Z" fill="#FBF7EE"/>
<path d="M77.8492 209.688C71.298 210.377 72.8057 202.843 71.6071 198.172C68.0095 177.233 59.0897 172.561 72.9386 148.508C78.9984 140.624 84.0782 142.405 91.4628 133.71C98.3164 125.633 97.4454 119.961 101.862 110.894C127.006 64.7316 181.853 80.082 236.052 75.4757C236.715 75.4567 237.003 76.2973 236.476 76.6979C229.839 81.7479 224.512 86.0915 220.779 89.2106C204.038 103.204 201.896 107.151 192.82 110.755C185.486 113.667 182.565 112.806 178.921 116.584C173.732 121.976 175.595 127.963 173.592 137.34C170.678 150.958 161.631 162.27 153.448 168.383C142.322 176.707 136.54 172.626 126.834 181.837C118.184 190.045 122.149 194.978 114.31 200.653C110.48 203.428 107.696 203.67 83.8802 208.456C81.642 208.907 79.6091 209.317 77.8411 209.676L77.8492 209.688Z" fill="#B1E0DE"/>
<mask id="mask4_32_278" style="mask-type:luminance" maskUnits="userSpaceOnUse" x="65" y="75" width="172" height="135">
<path d="M77.8492 209.688C71.298 210.377 72.8057 202.843 71.6071 198.172C68.0095 177.233 59.0897 172.561 72.9386 148.508C78.9984 140.624 84.0782 142.405 91.4628 133.71C98.3164 125.633 97.4454 119.961 101.862 110.894C127.006 64.7316 181.853 80.082 236.052 75.4757C236.715 75.4567 237.003 76.2973 236.476 76.6979C229.839 81.7479 224.512 86.0915 220.779 89.2106C204.038 103.204 201.896 107.151 192.82 110.755C185.486 113.667 182.565 112.806 178.921 116.584C173.732 121.976 175.595 127.963 173.592 137.34C170.678 150.958 161.631 162.27 153.448 168.383C142.322 176.707 136.54 172.626 126.834 181.837C118.184 190.045 122.149 194.978 114.31 200.653C110.48 203.428 107.696 203.67 83.8802 208.456C81.642 208.907 79.6091 209.317 77.8411 209.676L77.8492 209.688Z" fill="white"/>
</mask>
<g mask="url(#mask4_32_278)">
<path d="M207.839 88.6662C168.919 96.4477 133.785 119.132 110.656 151.369C93.3778 176.806 79.903 204.766 61.752 229.707C78.8542 204.115 92.108 175.869 109.287 150.366C132.451 117.831 168.336 94.9896 207.839 88.6662Z" fill="#6DA7A3"/>
<path d="M183.036 79.1504C180.361 85.7526 177.175 92.871 174.198 99.3668L173.712 98.5555C184.386 99.0345 195.048 99.651 205.681 100.727C194.71 100.736 183.753 100.261 172.799 99.6504C176.016 92.9367 179.535 85.7 183.032 79.1561L183.036 79.1504Z" fill="#6DA7A3"/>
<path d="M163.508 79.6984C159.236 90.721 154.708 101.649 150.079 112.527L149.595 111.724C163.649 112.874 178.929 114.208 192.878 115.866C178.578 115.21 163.008 113.997 148.695 112.811C153.478 101.704 158.359 90.6389 163.508 79.6984Z" fill="#6DA7A3"/>
<path d="M147.857 82.4844C144.096 95.8781 139.612 110.416 135.471 123.72L134.801 122.977C150.271 119.912 166.622 120.6 181.518 125.934C166.136 121.456 149.723 121.059 134.063 124.294C138.402 110.688 143.142 95.9414 147.852 82.4811L147.857 82.4844Z" fill="#6DA7A3"/>
<path d="M132.402 86.861C128.646 102.122 126.152 117.703 125.24 133.394L124.635 132.787C143.335 131.663 162.187 132.574 180.648 135.776C161.88 133.526 142.93 132.838 124.056 133.961C125.04 118.016 127.744 102.147 132.402 86.861Z" fill="#6DA7A3"/>
<path d="M113.715 97.0714C115.331 111.297 116.781 127.07 118.029 141.356L117.389 140.835C134.981 138.692 152.913 138.989 170.372 142.037C152.636 139.943 134.665 139.881 116.932 142.034C115.751 127.529 114.517 111.577 113.715 97.0714Z" fill="#6DA7A3"/>
<path d="M103.904 122.137C106.193 131.324 108.479 141.435 110.524 150.717L109.924 150.287C127.43 148.003 145.397 148.753 162.544 153.037C145.082 149.889 127.173 149.288 109.553 151.429C107.617 141.945 105.571 131.64 103.898 122.133L103.904 122.137Z" fill="#6DA7A3"/>
<path d="M94.0836 135.314C94.4177 144.54 97.7172 153.644 103.477 160.85L103.055 160.636C118.761 160.997 135.155 161.504 150.799 162.511C135.045 162.653 118.542 162.242 102.762 161.733C96.9085 154.284 93.7272 144.778 94.0868 135.308L94.0836 135.314Z" fill="#6DA7A3"/>
<path d="M83.42 150.581C87.0557 159.129 90.7745 168.597 94.1189 177.295L93.4163 176.95C106.37 172.864 120.486 172.132 133.675 175.526C120.22 173.184 106.261 174.128 93.2324 178.2C89.9281 169.275 86.3992 159.584 83.4144 150.578L83.42 150.581Z" fill="#6DA7A3"/>
<path d="M76.1964 158.604C80.6498 167.783 84.8129 177.098 88.8944 186.449L88.2976 186.105C99.4881 185.033 111.23 184.029 122.444 183.456C111.177 185.014 99.3182 186.246 87.9845 187.303C83.8972 177.805 79.8947 168.264 76.1964 158.604Z" fill="#6DA7A3"/>
<path d="M72.5387 169.428C76.0829 178.226 79.6098 188 82.7731 196.972L82.1586 196.58C92.1678 195.546 103.059 194.506 113.073 193.937C103.013 195.479 91.9704 196.728 81.8178 197.8C78.657 188.64 75.288 178.684 72.542 169.422L72.5387 169.428Z" fill="#6DA7A3"/>
<path opacity="0.14" d="M73.1619 212.635C165.355 216.225 229.599 108.929 236.476 76.698C215.612 86.8718 181.609 95.1278 164.546 104.139C125.799 117.567 74.9516 203.392 73.1652 212.629L73.1619 212.635Z" fill="#6DA7A3"/>
<path opacity="0.16" d="M66.5486 179.383C64.3057 174.67 62.0629 169.958 59.82 165.245C72.6606 75.498 185.9 39.5104 240.312 73.6379C240.395 74.7397 238.498 75.8343 236.476 76.6979C187.574 83.0365 124.552 69.1125 103.871 111.129C101.408 123.06 101.921 126.122 88.6034 140.986C79.4383 150.442 76.3469 149.286 71.9765 155.281C68.7536 159.695 65.5757 166.984 66.5486 179.383Z" fill="white"/>
<path opacity="0.12" d="M168.645 87.6809C165.82 79.9871 119.289 96.1974 119.656 107.678C120.746 110.384 129.442 109.236 132.008 108.899C151.792 106.278 170.484 92.1224 168.645 87.6809Z" fill="white"/>
<path opacity="0.12" d="M119.944 120.409C115.348 115.861 107.991 122.488 111.688 127.464C116.405 133.522 125.735 126.261 119.944 120.409Z" fill="white"/>
<path opacity="0.1" d="M119.352 211.453C80.0913 222.645 48.5705 196.399 46.175 194.326L64.2002 163.106C78.7068 204.514 81.1221 199.74 94.1156 177.301C81.4156 192.695 97.9395 207.404 112.242 197.739C116.404 195.125 117.673 191.561 119.65 188.163C133.935 168.015 157.126 172.317 175.995 140.213C173.108 174.194 150.314 202.623 119.343 211.455L119.352 211.453Z" fill="#6DA7A3"/>
<g opacity="0.28">
<path d="M198.55 79.1726C199.209 79.5531 199.8 78.5303 199.141 78.1498C198.482 77.7692 197.891 78.792 198.55 79.1726Z" fill="#6DA7A3"/>
<path d="M192.978 85.9361C193.637 86.3167 194.228 85.2939 193.569 84.9133C192.91 84.5328 192.319 85.5556 192.978 85.9361Z" fill="#6DA7A3"/>
<path d="M196.499 84.6419C197.158 85.0225 197.749 83.9997 197.09 83.6192C196.43 83.2386 195.84 84.2614 196.499 84.6419Z" fill="#6DA7A3"/>
<path d="M204.014 81.2207C204.673 81.6012 205.264 80.5784 204.604 80.1979C203.945 79.8173 203.355 80.8401 204.014 81.2207Z" fill="#6DA7A3"/>
<path d="M212.3 79.3512C212.959 79.7317 213.55 78.7089 212.891 78.3284C212.232 77.9478 211.641 78.9706 212.3 79.3512Z" fill="#6DA7A3"/>
<path d="M223.386 77.4378C224.045 77.8184 224.635 76.7956 223.976 76.4151C223.317 76.0345 222.726 77.0573 223.386 77.4378Z" fill="#6DA7A3"/>
<path d="M204.335 90.2726C204.994 90.6531 205.585 89.6303 204.926 89.2498C204.267 88.8692 203.676 89.892 204.335 90.2726Z" fill="#6DA7A3"/>
<path d="M197.601 91.3709C198.26 91.7515 198.85 90.7287 198.191 90.3482C197.532 89.9676 196.941 90.9904 197.601 91.3709Z" fill="#6DA7A3"/>
<path d="M205.501 95.9321C206.16 96.3127 206.75 95.2899 206.091 94.9093C205.432 94.5288 204.842 95.5516 205.501 95.9321Z" fill="#6DA7A3"/>
<path d="M211.611 87.2662C212.27 87.6468 212.86 86.624 212.201 86.2434C211.542 85.8629 210.951 86.8857 211.611 87.2662Z" fill="#6DA7A3"/>
<path d="M220.133 84.9874C220.792 85.368 221.383 84.3452 220.724 83.9646C220.064 83.5841 219.474 84.6069 220.133 84.9874Z" fill="#6DA7A3"/>
<path d="M73.4932 167.144C74.1523 167.525 74.7428 166.502 74.0837 166.122C73.4246 165.741 72.8341 166.764 73.4932 167.144Z" fill="#6DA7A3"/>
<path d="M75.5381 176.085C76.1972 176.466 76.7878 175.443 76.1286 175.062C75.4695 174.682 74.879 175.705 75.5381 176.085Z" fill="#6DA7A3"/>
<path d="M78.8843 159.723C79.5434 160.104 80.134 159.081 79.4748 158.7C78.8157 158.32 78.2252 159.343 78.8843 159.723Z" fill="#6DA7A3"/>
<path d="M80.7044 165.207C81.3635 165.588 81.954 164.565 81.2949 164.184C80.6358 163.804 80.0452 164.827 80.7044 165.207Z" fill="#6DA7A3"/>
<path d="M100.66 176.729C101.319 177.109 101.909 176.086 101.25 175.706C100.591 175.325 100.001 176.348 100.66 176.729Z" fill="#6DA7A3"/>
<path d="M104.11 190.914C104.769 191.294 105.36 190.272 104.701 189.891C104.042 189.511 103.451 190.533 104.11 190.914Z" fill="#6DA7A3"/>
<path d="M93.4602 189.199C94.1194 189.579 94.7099 188.556 94.0507 188.176C93.3916 187.795 92.8011 188.818 93.4602 189.199Z" fill="#6DA7A3"/>
<path d="M114.649 176.492C115.309 176.873 115.899 175.85 115.24 175.469C114.581 175.089 113.99 176.112 114.649 176.492Z" fill="#6DA7A3"/>
<path d="M111.099 185.529C111.758 185.91 112.349 184.887 111.689 184.506C111.03 184.126 110.44 185.149 111.099 185.529Z" fill="#6DA7A3"/>
<path d="M100.8 185.123C101.459 185.503 102.049 184.48 101.39 184.1C100.731 183.719 100.141 184.742 100.8 185.123Z" fill="#6DA7A3"/>
<path d="M105.559 198.957C106.218 199.338 106.809 198.315 106.15 197.935C105.49 197.554 104.9 198.577 105.559 198.957Z" fill="#6DA7A3"/>
<path d="M98.0589 198.507C98.718 198.888 99.3085 197.865 98.6494 197.485C97.9902 197.104 97.3997 198.127 98.0589 198.507Z" fill="#6DA7A3"/>
<path d="M89.5386 200.795C90.1977 201.176 90.7882 200.153 90.1291 199.772C89.47 199.392 88.8795 200.415 89.5386 200.795Z" fill="#6DA7A3"/>
<path d="M85.2703 196.664C85.9294 197.044 86.5199 196.021 85.8608 195.641C85.2017 195.26 84.6112 196.283 85.2703 196.664Z" fill="#6DA7A3"/>
<path d="M78.6289 203.363C79.2881 203.743 79.8786 202.721 79.2194 202.34C78.5603 201.959 77.9698 202.982 78.6289 203.363Z" fill="#6DA7A3"/>
<path d="M73.2879 199.173C73.947 199.553 74.5375 198.53 73.8784 198.15C73.2193 197.769 72.6287 198.792 73.2879 199.173Z" fill="#6DA7A3"/>
<path d="M75.5349 190.49C76.1941 190.87 76.7846 189.847 76.1255 189.467C75.4663 189.086 74.8758 190.109 75.5349 190.49Z" fill="#6DA7A3"/>
<path d="M70.6731 185.47C71.3323 185.85 71.9228 184.827 71.2636 184.447C70.6045 184.066 70.014 185.089 70.6731 185.47Z" fill="#6DA7A3"/>
<path d="M79.9795 180.862C80.6387 181.243 81.2292 180.22 80.57 179.839C79.9109 179.459 79.3204 180.482 79.9795 180.862Z" fill="#6DA7A3"/>
<path d="M164.501 144.868C165.16 145.248 165.751 144.226 165.092 143.845C164.433 143.465 163.842 144.487 164.501 144.868Z" fill="#6DA7A3"/>
<path d="M156.283 145.663C156.942 146.043 157.532 145.02 156.873 144.64C156.214 144.259 155.623 145.282 156.283 145.663Z" fill="#6DA7A3"/>
<path d="M157.212 137.332C157.871 137.713 158.461 136.69 157.802 136.31C157.143 135.929 156.553 136.952 157.212 137.332Z" fill="#6DA7A3"/>
<path d="M165.977 134.633C166.636 135.014 167.227 133.991 166.568 133.61C165.908 133.23 165.318 134.253 165.977 134.633Z" fill="#6DA7A3"/>
<path d="M129.35 110.72C130.009 111.101 130.6 110.078 129.94 109.698C129.281 109.317 128.691 110.34 129.35 110.72Z" fill="#6DA7A3"/>
<path d="M122.376 112.233C123.035 112.614 123.625 111.591 122.966 111.211C122.307 110.83 121.717 111.853 122.376 112.233Z" fill="#6DA7A3"/>
<path d="M119.677 103.468C120.336 103.849 120.926 102.826 120.267 102.445C119.608 102.065 119.017 103.088 119.677 103.468Z" fill="#6DA7A3"/>
<path d="M129.575 99.7635C130.235 100.144 130.825 99.1213 130.166 98.7407C129.507 98.3602 128.916 99.383 129.575 99.7635Z" fill="#6DA7A3"/>
<path d="M132.492 87.0335C133.151 87.4141 133.741 86.3913 133.082 86.0108C132.423 85.6302 131.833 86.653 132.492 87.0335Z" fill="#6DA7A3"/>
<path d="M171.982 109.833C172.641 110.214 173.232 109.191 172.572 108.81C171.913 108.43 171.323 109.453 171.982 109.833Z" fill="#6DA7A3"/>
<path d="M176.695 106.461C177.354 106.842 177.944 105.819 177.285 105.438C176.626 105.058 176.036 106.081 176.695 106.461Z" fill="#6DA7A3"/>
<path d="M187.999 108.001C188.658 108.382 189.249 107.359 188.59 106.979C187.93 106.598 187.34 107.621 187.999 108.001Z" fill="#6DA7A3"/>
</g>
</g>
</svg>
