<svg width="52" height="53" viewBox="0 0 52 53" fill="none" xmlns="http://www.w3.org/2000/svg">
<circle cx="25.8991" cy="26.3961" r="25.8991" fill="#FFFECC"/>
<path d="M25.4675 28.5953L30.8966 34.0244C31.1491 34.2769 31.4437 34.4032 31.7804 34.4032C32.1171 34.4032 32.4117 34.2769 32.6642 34.0244C32.9167 33.7719 33.043 33.4773 33.043 33.1406C33.043 32.8039 32.9167 32.5093 32.6642 32.2568L27.2351 26.8277L32.6642 21.3986C32.9167 21.146 33.043 20.8514 33.043 20.5147C33.043 20.1781 32.9167 19.8835 32.6642 19.6309C32.4117 19.3784 32.1171 19.2522 31.7804 19.2522C31.4437 19.2522 31.1491 19.3784 30.8966 19.6309L25.4675 25.06L20.0384 19.6309C19.7859 19.3784 19.4913 19.2522 19.1546 19.2522C18.8179 19.2522 18.5233 19.3784 18.2708 19.6309C18.0183 19.8835 17.892 20.1781 17.892 20.5147C17.892 20.8514 18.0183 21.146 18.2708 21.3986L23.6999 26.8277L18.2708 32.2568C18.0183 32.5093 17.892 32.8039 17.892 33.1406C17.892 33.4773 18.0183 33.7719 18.2708 34.0244C18.5233 34.2769 18.8179 34.4032 19.1546 34.4032C19.4913 34.4032 19.7859 34.2769 20.0384 34.0244L25.4675 28.5953ZM25.4675 43.6621C23.1668 43.6621 20.9923 43.2202 18.9441 42.3364C16.896 41.4526 15.1073 40.2461 13.5782 38.717C12.049 37.1878 10.8426 35.3992 9.95877 33.351C9.07496 31.3028 8.63306 29.1283 8.63306 26.8277C8.63306 24.4989 9.07496 22.3104 9.95877 20.2622C10.8426 18.2141 12.049 16.4324 13.5782 14.9173C15.1073 13.4022 16.896 12.2027 18.9441 11.3189C20.9923 10.4351 23.1668 9.99323 25.4675 9.99323C27.7963 9.99323 29.9848 10.4351 32.0329 11.3189C34.0811 12.2027 35.8628 13.4022 37.3779 14.9173C38.893 16.4324 40.0924 18.2141 40.9762 20.2622C41.86 22.3104 42.3019 24.4989 42.3019 26.8277C42.3019 29.1283 41.86 31.3028 40.9762 33.351C40.0924 35.3992 38.893 37.1878 37.3779 38.717C35.8628 40.2461 34.0811 41.4526 32.0329 42.3364C29.9848 43.2202 27.7963 43.6621 25.4675 43.6621ZM25.4675 41.1369C29.4516 41.1369 32.8326 39.7411 35.6102 36.9494C38.3879 34.1576 39.7768 30.7838 39.7768 26.8277C39.7768 22.8435 38.3879 19.4626 35.6102 16.6849C32.8326 13.9072 29.4516 12.5184 25.4675 12.5184C21.5114 12.5184 18.1375 13.9072 15.3458 16.6849C12.5541 19.4626 11.1582 22.8435 11.1582 26.8277C11.1582 30.7838 12.5541 34.1576 15.3458 36.9494C18.1375 39.7411 21.5114 41.1369 25.4675 41.1369Z" fill="#957D3C"/>
</svg>
