<svg width="52" height="52" viewBox="0 0 52 52" fill="none" xmlns="http://www.w3.org/2000/svg">
<circle cx="25.8991" cy="25.8991" r="25.8991" fill="#FFFECC"/>
<path d="M33.2222 23.5639C33.9927 22.7935 33.9927 21.5535 33.9927 19.0736C33.9927 16.5936 33.9927 15.3536 33.2222 14.5832M33.2222 23.5639C32.4518 24.3343 31.2118 24.3343 28.7319 24.3343H23.4711C20.9912 24.3343 19.7512 24.3343 18.9808 23.5639M33.2222 14.5832C32.4518 13.8128 31.2118 13.8128 28.7319 13.8128H23.4711C20.9912 13.8128 19.7512 13.8128 18.9808 14.5832M18.9808 14.5832C18.2104 15.3536 18.2104 16.5936 18.2104 19.0736C18.2104 21.5535 18.2104 22.7935 18.9808 23.5639" stroke="#957D3C" stroke-width="1.72661"/>
<path d="M27.4167 19.0736C27.4167 19.7999 26.8279 20.3888 26.1015 20.3888C25.3751 20.3888 24.7863 19.7999 24.7863 19.0736C24.7863 18.3472 25.3751 17.7584 26.1015 17.7584C26.8279 17.7584 27.4167 18.3472 27.4167 19.0736Z" stroke="#957D3C" stroke-width="1.72661"/>
<path d="M33.9927 17.7584C31.8135 17.7584 30.0471 15.9919 30.0471 13.8128" stroke="#957D3C" stroke-width="1.72661" stroke-linecap="round"/>
<path d="M33.9927 20.3888C31.8135 20.3888 30.0471 22.1553 30.0471 24.3343" stroke="#957D3C" stroke-width="1.72661" stroke-linecap="round"/>
<path d="M18.2104 17.7584C20.3895 17.7584 22.156 15.9919 22.156 13.8128" stroke="#957D3C" stroke-width="1.72661" stroke-linecap="round"/>
<path d="M18.2104 20.3888C20.3895 20.3888 22.156 22.1553 22.156 24.3343" stroke="#957D3C" stroke-width="1.72661" stroke-linecap="round"/>
<path d="M16.8951 36.6819H19.8674C21.1969 36.6819 22.5406 36.8204 23.8345 37.087C26.1233 37.5585 28.533 37.6155 30.8452 37.2414C31.9854 37.0567 33.1062 36.7746 34.1209 36.2848C35.0368 35.8428 36.1586 35.2197 36.9122 34.5217C37.6648 33.8248 38.4485 32.6841 39.0047 31.7924C39.4817 31.0279 39.251 30.0899 38.4965 29.5202C37.6585 28.8874 36.4148 28.8876 35.5769 29.5206L33.2001 31.3159C32.2789 32.0118 31.2728 32.6523 30.0741 32.8435C29.93 32.8665 29.779 32.8874 29.6215 32.9057M29.6215 32.9057C29.574 32.9112 29.526 32.9165 29.4773 32.9215M29.6215 32.9057C29.8132 32.8647 30.0035 32.7463 30.1823 32.5905C31.0282 31.8521 31.0816 30.6078 30.3476 29.7833C30.1774 29.5921 29.978 29.4326 29.7565 29.3004C26.0774 27.106 20.3533 28.7773 16.8951 31.2298M29.6215 32.9057C29.5735 32.916 29.5253 32.9215 29.4773 32.9215M29.4773 32.9215C28.7889 32.9921 27.9838 33.0104 27.0902 32.926" stroke="#957D3C" stroke-width="1.72661" stroke-linecap="round"/>
<path d="M14.9224 28.2799C14.9224 28.2799 16.8952 28.2799 16.8952 30.2527V36.8286C16.8952 36.8286 16.8952 38.8014 14.9224 38.8014C12.9496 38.8014 12.9496 38.8014 12.9496 36.8286V30.2527C12.9496 30.2527 12.9496 28.2799 14.9224 28.2799Z" stroke="#957D3C" stroke-width="1.72661"/>
</svg>
