<svg width="52" height="52" viewBox="0 0 52 52" fill="none" xmlns="http://www.w3.org/2000/svg">
<circle cx="25.9423" cy="25.8991" r="25.8991" fill="#FFFECC"/>
<path d="M21.0253 29.2773H29.1328M31.1597 17.7706H17.6471M31.1597 17.7706C32.2348 17.7706 33.2659 17.3435 34.0261 16.5833C34.7864 15.823 35.2135 14.7919 35.2135 13.7168V13.0412H18.3227C17.0684 13.0412 15.8655 13.5395 14.9785 14.4264C14.0916 15.3133 13.5933 16.5163 13.5933 17.7706C13.5933 19.0249 14.0916 20.2279 14.9785 21.1148C15.8655 22.0017 17.0684 22.5 18.3227 22.5H35.2135V21.8244C35.2135 20.7492 34.7864 19.7181 34.0261 18.9579C33.2659 18.1977 32.2348 17.7706 31.1597 17.7706ZM13.5933 41.4386H36.5647C36.5647 36.0336 37.8268 30.9123 40.2429 26.2815L40.6185 25.5613V25.2235H9.53955V25.5613L9.9152 26.2815C12.3313 30.9123 13.5933 36.0336 13.5933 41.4386Z" stroke="#957D3C" stroke-width="1.72661"/>
</svg>
