<svg width="52" height="52" viewBox="0 0 52 52" fill="none" xmlns="http://www.w3.org/2000/svg">
<circle cx="25.8991" cy="25.8991" r="25.8991" fill="#FFFECC"/>
<path fill-rule="evenodd" clip-rule="evenodd" d="M18.8607 15.6258C17.6628 13.7091 19.0407 11.2229 21.301 11.2229H30.4974C32.7575 11.2229 34.1355 13.7091 32.9375 15.6258L31.2255 18.3652C33.248 19.4537 34.9656 21.0887 36.2476 22.9378C37.8525 25.2527 38.8487 28.0107 38.8487 30.6472C38.8487 33.9646 37.2692 36.3898 34.7931 37.9151C32.397 39.3911 29.2204 39.9997 25.8992 39.9997C22.5778 39.9997 19.4014 39.3911 17.0052 37.9151C14.5291 36.3898 12.9496 33.9646 12.9496 30.6472C12.9496 28.0107 13.9458 25.2527 15.5508 22.9378C16.8327 21.0887 18.5503 19.4537 20.5728 18.3652L18.8607 15.6258ZM30.4974 14.1006H21.301L23.8853 18.2356C24.1156 18.6038 24.1671 19.0562 24.0256 19.4668C23.8843 19.8773 23.5651 20.202 23.157 20.3504C21.0951 21.1003 19.2504 22.6522 17.9157 24.5774C16.578 26.5068 15.8273 28.7037 15.8273 30.6472C15.8273 32.8924 16.8245 34.4239 18.5145 35.4649C20.2843 36.5551 22.8633 37.122 25.8992 37.122C28.935 37.122 31.5139 36.5551 33.2839 35.4649C34.9738 34.4239 35.971 32.8924 35.971 30.6472C35.971 28.7037 35.2202 26.5068 33.8826 24.5774C32.5479 22.6522 30.7032 21.1003 28.6413 20.3504C28.2332 20.202 27.914 19.8773 27.7727 19.4668C27.6312 19.0562 27.6827 18.6038 27.913 18.2356L30.4974 14.1006Z" fill="#957D3C"/>
<path d="M25.6322 33.9941C24.8402 33.9941 24.1404 33.8375 23.5326 33.5244C22.934 33.2114 22.4184 32.7417 21.9856 32.1155L23.0077 30.9414C23.4589 31.586 23.8917 32.0327 24.3061 32.2813C24.7205 32.5299 25.2132 32.6542 25.7841 32.6542C26.134 32.6542 26.4517 32.599 26.7372 32.4885C27.0227 32.378 27.2483 32.226 27.414 32.0327C27.5798 31.8393 27.6627 31.6183 27.6627 31.3696C27.6627 31.2039 27.635 31.0473 27.5798 30.9C27.5245 30.7527 27.437 30.6191 27.3173 30.4994C27.2068 30.3797 27.0595 30.2692 26.8753 30.1679C26.7004 30.0666 26.4932 29.9791 26.2537 29.9055C26.0143 29.8226 25.7381 29.7535 25.425 29.6983C24.762 29.5694 24.2094 29.376 23.7674 29.1181C23.3346 28.8603 23.0077 28.5334 22.7867 28.1374C22.5749 27.7415 22.469 27.281 22.469 26.7561C22.469 26.3694 22.5519 26.0102 22.7176 25.6787C22.8926 25.3472 23.1274 25.0618 23.4221 24.8223C23.726 24.5737 24.0805 24.3849 24.4857 24.256C24.8909 24.1179 25.3283 24.0488 25.7979 24.0488C26.5438 24.0488 27.193 24.1962 27.7455 24.4908C28.3073 24.7763 28.7493 25.1953 29.0716 25.7478L28.0218 26.7838C27.7455 26.3325 27.414 25.9872 27.0273 25.7478C26.6497 25.5084 26.2261 25.3887 25.7565 25.3887C25.3973 25.3887 25.0843 25.4439 24.8172 25.5544C24.5502 25.6649 24.3384 25.8215 24.1818 26.0241C24.0345 26.2174 23.9608 26.4477 23.9608 26.7147C23.9608 26.9081 23.9976 27.0877 24.0713 27.2534C24.145 27.41 24.2555 27.5527 24.4028 27.6816C24.5594 27.8013 24.7666 27.9118 25.0244 28.0131C25.2822 28.1052 25.5907 28.1881 25.9499 28.2617C26.4563 28.3722 26.9076 28.515 27.3035 28.6899C27.6995 28.8557 28.0356 29.0537 28.3119 29.2839C28.5881 29.5141 28.7953 29.772 28.9334 30.0574C29.0808 30.3429 29.1544 30.6514 29.1544 30.9829C29.1544 31.5999 29.0117 32.134 28.7262 32.5852C28.4408 33.0364 28.0356 33.3863 27.5107 33.635C26.9858 33.8744 26.3596 33.9941 25.6322 33.9941ZM24.8034 35.1129V28.8419L26.1432 29.2977V35.1129H24.8034ZM26.6958 29.2977L25.3559 28.8419V23.0543H26.6958V29.2977Z" fill="#957D3C"/>
</svg>
