<svg width="25" height="25" viewBox="0 0 25 25" fill="none" xmlns="http://www.w3.org/2000/svg">
<g filter="url(#filter0_d_47_841)">
<path d="M24.5343 15.7847C24.3869 15.6149 24.173 15.5173 23.9482 15.5173H22.3965V13.9655C22.3965 13.1102 21.7004 12.4138 20.8447 12.4138H17.7413C16.8857 12.4138 16.1896 13.1102 16.1896 13.9655V15.5173H14.6378C14.413 15.5173 14.1992 15.615 14.0518 15.7847C13.9044 15.9548 13.8379 16.1802 13.8697 16.403L14.6456 21.834C14.7001 22.2159 15.0276 22.5 15.4137 22.5H23.1723C23.5584 22.5 23.8859 22.2159 23.9404 21.834L24.7163 16.403C24.7481 16.1802 24.6816 15.9549 24.5343 15.7847ZM17.7413 13.9655H20.8447V15.5173H17.7413V13.9655ZM22.4995 20.9483H16.0865L15.5325 17.069H23.0535L22.4995 20.9483Z" fill="#2A588A"/>
<path d="M9.20679 14.7413H10.7585V22.5H9.20679V14.7413Z" fill="#2A588A"/>
<path d="M14.4678 13.0927L12.9881 11.2432L11.8693 8.44583C11.5136 7.55708 10.6654 6.98279 9.7081 6.98279H5.32759C4.04408 6.98279 3 8.02687 3 9.31037V14.7414C3 15.5968 3.69595 16.2931 4.55172 16.2931H5.32759V22.5H6.87931V14.7414H4.55172V9.31037C4.55172 8.88225 4.89985 8.53451 5.32759 8.53451H9.7081C10.0271 8.53451 10.3101 8.72623 10.4283 9.02245L11.7046 12.1229L13.2563 14.0625L14.4678 13.0927Z" fill="#2A588A"/>
<path d="M4.55164 3.10345C4.55164 1.39221 5.94384 0 7.65508 0C9.36633 0 10.7585 1.39221 10.7585 3.10345C10.7585 4.81469 9.36633 6.2069 7.65508 6.2069C5.94384 6.2069 4.55164 4.81469 4.55164 3.10345ZM6.10336 3.10345C6.10336 3.95907 6.79931 4.65517 7.65508 4.65517C8.51086 4.65517 9.20681 3.95907 9.20681 3.10345C9.20681 2.24783 8.51086 1.55172 7.65508 1.55172C6.79931 1.55172 6.10336 2.24783 6.10336 3.10345Z" fill="#2A588A"/>
</g>
<defs>
<filter id="filter0_d_47_841" x="0.3" y="0" width="24.4241" height="24.2" filterUnits="userSpaceOnUse" color-interpolation-filters="sRGB">
<feFlood flood-opacity="0" result="BackgroundImageFix"/>
<feColorMatrix in="SourceAlpha" type="matrix" values="0 0 0 0 0 0 0 0 0 0 0 0 0 0 0 0 0 0 127 0" result="hardAlpha"/>
<feOffset dx="-2" dy="1"/>
<feGaussianBlur stdDeviation="0.35"/>
<feComposite in2="hardAlpha" operator="out"/>
<feColorMatrix type="matrix" values="0 0 0 0 0.866667 0 0 0 0 0.945098 0 0 0 0 0.878431 0 0 0 1 0"/>
<feBlend mode="normal" in2="BackgroundImageFix" result="effect1_dropShadow_47_841"/>
<feBlend mode="normal" in="SourceGraphic" in2="effect1_dropShadow_47_841" result="shape"/>
</filter>
</defs>
</svg>
