<svg width="52" height="52" viewBox="0 0 52 52" fill="none" xmlns="http://www.w3.org/2000/svg">
<circle cx="25.8991" cy="25.899" r="25.8991" fill="#FFFECC"/>
<path d="M29.7842 12.0862H34.1007V16.4027" stroke="#957D3C" stroke-width="1.72661"/>
<path d="M16.4028 18.9926L21.5827 15.1077L26.7625 18.9926L33.6689 12.5178" stroke="#957D3C" stroke-width="1.72661"/>
<path d="M25.0566 34.8574C24.2647 34.8574 23.5648 34.7008 22.957 34.3877C22.3585 34.0746 21.8428 33.605 21.41 32.9788L22.4322 31.8047C22.8834 32.4493 23.3162 32.8959 23.7306 33.1446C24.145 33.3932 24.6376 33.5175 25.2085 33.5175C25.5585 33.5175 25.8762 33.4623 26.1616 33.3518C26.4471 33.2413 26.6727 33.0893 26.8385 32.8959C27.0042 32.7026 27.0871 32.4816 27.0871 32.2329C27.0871 32.0672 27.0595 31.9106 27.0042 31.7633C26.949 31.6159 26.8615 31.4824 26.7418 31.3627C26.6313 31.243 26.4839 31.1325 26.2998 31.0312C26.1248 30.9299 25.9176 30.8424 25.6782 30.7688C25.4388 30.6859 25.1625 30.6168 24.8494 30.5616C24.1864 30.4326 23.6339 30.2393 23.1919 29.9814C22.7591 29.7236 22.4322 29.3967 22.2112 29.0007C21.9994 28.6047 21.8935 28.1443 21.8935 27.6194C21.8935 27.2327 21.9763 26.8735 22.1421 26.542C22.317 26.2105 22.5519 25.925 22.8465 25.6856C23.1504 25.437 23.505 25.2482 23.9101 25.1193C24.3153 24.9812 24.7527 24.9121 25.2224 24.9121C25.9683 24.9121 26.6175 25.0594 27.17 25.3541C27.7317 25.6396 28.1737 26.0586 28.496 26.6111L27.4462 27.647C27.17 27.1958 26.8385 26.8505 26.4517 26.6111C26.0741 26.3717 25.6506 26.2519 25.1809 26.2519C24.8218 26.2519 24.5087 26.3072 24.2416 26.4177C23.9746 26.5282 23.7628 26.6848 23.6063 26.8873C23.4589 27.0807 23.3852 27.3109 23.3852 27.578C23.3852 27.7714 23.4221 27.9509 23.4957 28.1167C23.5694 28.2732 23.6799 28.416 23.8273 28.5449C23.9838 28.6646 24.191 28.7751 24.4488 28.8764C24.7067 28.9685 25.0152 29.0514 25.3743 29.125C25.8808 29.2355 26.332 29.3783 26.728 29.5532C27.1239 29.719 27.46 29.917 27.7363 30.1472C28.0126 30.3774 28.2197 30.6352 28.3579 30.9207C28.5052 31.2062 28.5789 31.5147 28.5789 31.8462C28.5789 32.4631 28.4362 32.9972 28.1507 33.4485C27.8652 33.8997 27.46 34.2496 26.9352 34.4982C26.4103 34.7377 25.7841 34.8574 25.0566 34.8574ZM24.2278 35.9762V29.7052L25.5677 30.161V35.9762H24.2278ZM26.1202 30.161L24.7803 29.7052V23.9176H26.1202V30.161Z" fill="#957D3C"/>
<rect x="12.0863" y="22.4459" width="27.6257" height="14.6762" rx="0.863304" stroke="#957D3C" stroke-width="1.72661"/>
</svg>
