<svg width="53" height="52" viewBox="0 0 53 52" fill="none" xmlns="http://www.w3.org/2000/svg">
<circle cx="26.2157" cy="25.8991" r="25.8991" fill="#FFFECC"/>
<rect x="11.1078" y="19.856" width="27.6257" height="14.6762" rx="0.863304" stroke="#957D3C" stroke-width="1.72661"/>
<rect x="13.6977" y="22.446" width="27.6257" height="14.6762" rx="0.863304" fill="#FFFECC" stroke="#957D3C" stroke-width="1.72661"/>
<path d="M27.5313 34.8575C26.7394 34.8575 26.0395 34.7009 25.4318 34.3879C24.8332 34.0748 24.3175 33.6051 23.8847 32.9789L24.9069 31.8048C25.3581 32.4494 25.7909 32.8961 26.2053 33.1447C26.6197 33.3933 27.1123 33.5176 27.6833 33.5176C28.0332 33.5176 28.3509 33.4624 28.6364 33.3519C28.9218 33.2414 29.1474 33.0894 29.3132 32.8961C29.4789 32.7027 29.5618 32.4817 29.5618 32.233C29.5618 32.0673 29.5342 31.9107 29.4789 31.7634C29.4237 31.6161 29.3362 31.4825 29.2165 31.3628C29.106 31.2431 28.9587 31.1326 28.7745 31.0313C28.5995 30.93 28.3923 30.8425 28.1529 30.7689C27.9135 30.686 27.6372 30.6169 27.3241 30.5617C26.6611 30.4328 26.1086 30.2394 25.6666 29.9815C25.2338 29.7237 24.9069 29.3968 24.6859 29.0008C24.4741 28.6049 24.3682 28.1444 24.3682 27.6195C24.3682 27.2328 24.4511 26.8737 24.6168 26.5421C24.7918 26.2106 25.0266 25.9252 25.3213 25.6857C25.6252 25.4371 25.9797 25.2483 26.3849 25.1194C26.79 24.9813 27.2274 24.9122 27.6971 24.9122C28.443 24.9122 29.0922 25.0596 29.6447 25.3542C30.2064 25.6397 30.6484 26.0587 30.9707 26.6112L29.921 27.6472C29.6447 27.196 29.3132 26.8506 28.9264 26.6112C28.5489 26.3718 28.1253 26.2521 27.6556 26.2521C27.2965 26.2521 26.9834 26.3073 26.7164 26.4178C26.4493 26.5283 26.2375 26.6849 26.081 26.8875C25.9336 27.0808 25.86 27.3111 25.86 27.5781C25.86 27.7715 25.8968 27.9511 25.9705 28.1168C26.0441 28.2734 26.1547 28.4161 26.302 28.545C26.4585 28.6647 26.6657 28.7752 26.9236 28.8765C27.1814 28.9686 27.4899 29.0515 27.849 29.1251C28.3555 29.2357 28.8067 29.3784 29.2027 29.5533C29.5987 29.7191 29.9348 29.9171 30.211 30.1473C30.4873 30.3775 30.6945 30.6354 30.8326 30.9208C30.9799 31.2063 31.0536 31.5148 31.0536 31.8463C31.0536 32.4633 30.9109 32.9974 30.6254 33.4486C30.3399 33.8998 29.9348 34.2497 29.4099 34.4984C28.885 34.7378 28.2588 34.8575 27.5313 34.8575ZM26.7026 35.9763V29.7053L28.0424 30.1611V35.9763H26.7026ZM28.5949 30.1611L27.2551 29.7053V23.9177H28.5949V30.1611Z" fill="#957D3C"/>
<path d="M21.0358 10.3597V15.4316M19.7408 14.4604L21.0358 16.0791L22.3308 14.4604" stroke="#957D3C" stroke-width="0.647478" stroke-linecap="round"/>
<path d="M17.5826 11.223V17.3476M16.2876 16.1748L17.5826 18.1295L18.8775 16.1748" stroke="#957D3C" stroke-width="0.647478" stroke-linecap="round"/>
<path d="M14.1294 12.9496V15.8633M13.2661 15.5396L14.1294 16.5108L14.9927 15.5396" stroke="#957D3C" stroke-width="0.647478" stroke-linecap="round"/>
</svg>
