<svg width="21" height="27" viewBox="0 0 21 27" fill="none" xmlns="http://www.w3.org/2000/svg">
<path d="M14.2771 21.1718L12.1523 19.047M11.7146 1.94423C11.5921 1.94312 11.4544 1.94312 11.2971 1.94312H5.56134C4.1255 1.94312 3.40705 1.94312 2.85863 2.22255C2.37623 2.46835 1.98431 2.86027 1.73851 3.34267C1.45908 3.89109 1.45908 4.60954 1.45908 6.04538V20.9152C1.45908 22.351 1.45908 23.0686 1.73851 23.617C1.98431 24.0994 2.37623 24.492 2.85863 24.7378C3.40652 25.017 4.12411 25.017 5.55717 25.017L15.3073 25.017C16.7404 25.017 17.4569 25.017 18.0048 24.7378C18.4872 24.492 18.8804 24.0994 19.1262 23.617C19.4054 23.0691 19.4054 22.3526 19.4054 20.9195V10.0519C19.4054 9.89464 19.4053 9.75686 19.4041 9.6344M11.7146 1.94423C12.0805 1.94757 12.3111 1.96115 12.5322 2.01422C12.7938 2.07703 13.0445 2.1806 13.2739 2.32117C13.5325 2.47967 13.7546 2.70175 14.1978 3.14488L18.2043 7.15137C18.6477 7.59478 18.8681 7.81587 19.0267 8.0746C19.1672 8.30398 19.2712 8.5541 19.334 8.8157C19.3871 9.03677 19.4008 9.26848 19.4041 9.6344M11.7146 1.94423L11.7141 5.53265C11.7141 6.96849 11.7141 7.68613 11.9936 8.23455C12.2393 8.71695 12.6313 9.10944 13.1137 9.35524C13.6615 9.6344 14.3792 9.6344 15.8122 9.6344H19.4041M9.7913 19.8894C8.02139 19.8894 6.5866 18.4546 6.5866 16.6847C6.5866 14.9148 8.02139 13.48 9.7913 13.48C11.5612 13.48 12.996 14.9148 12.996 16.6847C12.996 18.4546 11.5612 19.8894 9.7913 19.8894Z" stroke="#2C578C" stroke-width="2.56376" stroke-linecap="round" stroke-linejoin="round"/>
</svg>
