<svg width="50" height="50" viewBox="0 0 50 50" fill="none" xmlns="http://www.w3.org/2000/svg">
<path d="M38.0416 43.3307C34.8373 39.752 30.1816 37.5 25 37.5C19.8184 37.5 15.1623 39.752 11.958 43.3307M25 47.5C12.5736 47.5 2.5 37.4264 2.5 25C2.5 12.5736 12.5736 2.5 25 2.5C37.4264 2.5 47.5 12.5736 47.5 25C47.5 37.4264 37.4264 47.5 25 47.5ZM25 30C20.8579 30 17.5 26.6421 17.5 22.5C17.5 18.3579 20.8579 15 25 15C29.1421 15 32.5 18.3579 32.5 22.5C32.5 26.6421 29.1421 30 25 30Z" stroke="#2C578C" stroke-width="5" stroke-linecap="round" stroke-linejoin="round"/>
</svg>
