<svg width="27" height="21" viewBox="0 0 27 21" fill="none" xmlns="http://www.w3.org/2000/svg">
<path d="M2.20508 9.12207V15.2753C2.20508 16.7112 2.20508 17.4287 2.48451 17.9771C2.73031 18.4595 3.12223 18.8522 3.60463 19.0979C4.15251 19.3771 4.8701 19.3771 6.30313 19.3771H21.1809C22.6139 19.3771 23.3305 19.3771 23.8783 19.0979C24.3607 18.8522 24.754 18.4595 24.9998 17.9771C25.2789 17.4293 25.2789 16.7127 25.2789 15.2797V9.12207M2.20508 9.12207V6.55831M2.20508 9.12207H25.2789M2.20508 6.55831V5.53305C2.20508 4.09721 2.20508 3.37876 2.48451 2.83034C2.73031 2.34794 3.12223 1.95602 3.60463 1.71022C4.15305 1.43079 4.8715 1.43079 6.30734 1.43079H21.1772C22.613 1.43079 23.3299 1.43079 23.8783 1.71022C24.3607 1.95602 24.754 2.34794 24.9998 2.83034C25.2789 3.37822 25.2789 4.09581 25.2789 5.52884V6.55831M2.20508 6.55831H25.2789M7.3326 14.2496H12.4601M25.2789 9.12207V6.55831" stroke="#2C578C" stroke-width="2.56376" stroke-linecap="round" stroke-linejoin="round"/>
</svg>
