<svg width="32" height="26" viewBox="0 0 32 26" fill="none" xmlns="http://www.w3.org/2000/svg">
<path d="M4.72652 13L0.477501 5.63502L9.82535 0.25293H11.6312C12.0089 1.31519 12.54 2.28892 13.2246 3.17413C13.9092 4.05935 14.7944 4.50195 15.8802 4.50195C16.9897 4.50195 17.8867 4.05935 18.5713 3.17413C19.2558 2.28892 19.7751 1.31519 20.1292 0.25293H21.9351L31.2475 5.67043L27.0339 13L24.3782 11.5482V19.1965L22.2537 21.0023V7.93658L26.2549 10.1319L28.344 6.44942L21.6872 2.55448C21.0734 3.80561 20.2473 4.79705 19.2086 5.5288C18.1699 6.26055 17.0605 6.62646 15.8802 6.62646C14.7236 6.62646 13.6199 6.26055 12.5695 5.5288C11.5191 4.79705 10.687 3.80561 10.0732 2.55448L3.381 6.44942L5.54092 10.1319L9.50667 7.93658V15.9035C9.15259 15.9507 8.79262 16.0274 8.42671 16.1336C8.0608 16.2399 7.71266 16.3756 7.38216 16.5408V11.5482L4.72652 13ZM5.50551 23.3039L4.12458 21.6751L6.92185 19.3027C7.46481 18.8542 8.06675 18.5119 8.72768 18.2759C9.38862 18.0398 10.0614 17.9218 10.746 17.9218C11.4306 17.9218 12.0974 18.0398 12.7466 18.2759C13.3957 18.5119 13.9917 18.8542 14.5347 19.3027L18.6421 22.8082C18.9726 23.0914 19.3444 23.298 19.7574 23.4278C20.1705 23.5576 20.6014 23.6225 21.0498 23.6225C21.4748 23.6225 21.8997 23.5576 22.3246 23.4278C22.7495 23.298 23.1271 23.0914 23.4576 22.8082L26.2549 20.365L27.6358 22.0292L24.8386 24.4015C24.2956 24.85 23.6996 25.1864 23.0504 25.4107C22.4012 25.635 21.7344 25.7471 21.0498 25.7471C20.3653 25.7471 19.6925 25.635 19.0316 25.4107C18.3706 25.1864 17.7687 24.85 17.2257 24.4015L13.1537 20.8961C12.8232 20.6128 12.4456 20.4063 12.0207 20.2764C11.5958 20.1466 11.1709 20.0817 10.746 20.0817C10.2975 20.0817 9.86664 20.1466 9.45356 20.2764C9.04048 20.4063 8.66869 20.6128 8.33819 20.8961L5.50551 23.3039Z" fill="#2C578C"/>
</svg>
